<?xml version="1.0" encoding="utf-8"?>
<!-- Generator: Adobe Illustrator 27.5.0, SVG Export Plug-In . SVG Version: 6.00 Build 0)  -->
<svg version="1.1" xmlns="http://www.w3.org/2000/svg" xmlns:xlink="http://www.w3.org/1999/xlink" x="0px" y="0px"
	 viewBox="0 0 500 500" style="enable-background:new 0 0 500 500;" xml:space="preserve">
<g id="Background_Complete">
	<g>
		<g>
			<g>
				<g>
					<rect x="48.967" y="38.785" style="fill:#E0E0E0;" width="108.245" height="156.897"/>
				</g>
			</g>
		</g>
		<g>
			<g>
				<g>
					<rect x="43.545" y="38.785" style="fill:#F5F5F5;" width="108.245" height="156.897"/>
				</g>
			</g>
		</g>
		<g>
			<g>
				<g>
					<g>
						<rect x="56.993" y="55.778" style="fill:#FFFFFF;" width="81.348" height="122.911"/>
					</g>
				</g>
			</g>
			<g>
				<g>
					<g>
						<g>
							<path style="fill:#E0E0E0;" d="M138.341,178.689c0,0-0.011-0.208-0.016-0.601c-0.004-0.406-0.009-0.985-0.016-1.743
								c-0.007-1.545-0.018-3.806-0.033-6.742c-0.017-5.891-0.042-14.475-0.073-25.319c-0.033-21.674-0.079-52.364-0.133-88.506
								l0.27,0.27c-24.853,0.007-52.393,0.016-81.338,0.024h-0.01l0.294-0.294c-0.022,46.367-0.043,89.118-0.06,122.911
								l-0.235-0.234c24.774,0.051,45.08,0.094,59.211,0.123c7.068,0.026,12.588,0.046,16.359,0.06
								c1.874,0.012,3.309,0.02,4.294,0.026C137.829,178.673,138.341,178.689,138.341,178.689s-0.479,0.017-1.435,0.025
								c-0.974,0.006-2.395,0.015-4.25,0.026c-3.758,0.014-9.261,0.034-16.306,0.06c-14.165,0.029-34.522,0.072-59.357,0.123
								l-0.235,0.001l0-0.235c-0.017-33.793-0.037-76.544-0.06-122.911l0-0.295h0.295h0.01c28.945,0.009,56.485,0.017,81.338,0.024
								h0.27l0,0.27c-0.054,36.214-0.1,66.967-0.133,88.684c-0.031,10.818-0.056,19.381-0.073,25.258
								c-0.014,2.912-0.025,5.155-0.033,6.688c-0.007,0.745-0.012,1.314-0.016,1.712
								C138.352,178.503,138.341,178.689,138.341,178.689z"/>
						</g>
					</g>
				</g>
			</g>
		</g>
		<g>
			<g>
				<g>
					<g>
						<path style="fill:none;stroke:#FBFBFB;stroke-width:0.25;stroke-miterlimit:10;" d="M134.57,56.598"/>
					</g>
				</g>
			</g>
		</g>
		<g>
			<g>
				<g>
					<g>
						<path style="fill:#E0E0E0;" d="M152.094,38.785c0.063,0.049-0.672,1.122-1.929,2.803c-1.258,1.681-3.042,3.969-5.079,6.442
							c-2.038,2.474-3.941,4.664-5.35,6.22c-1.409,1.557-2.321,2.483-2.382,2.431c-0.062-0.054,0.739-1.078,2.066-2.702
							c1.451-1.761,3.237-3.927,5.212-6.323c1.973-2.396,3.757-4.564,5.206-6.326C151.178,39.716,152.029,38.734,152.094,38.785z"/>
					</g>
				</g>
			</g>
		</g>
		<g>
			<g>
				<g>
					<g>
						<path style="fill:#FFFFFF;" d="M138.756,178.294c4.04,6.424,8.81,12.39,14.189,17.744"/>
					</g>
				</g>
			</g>
			<g>
				<g>
					<g>
						<g>
							<path style="fill:#E0E0E0;" d="M152.944,196.038c-0.053,0.054-1.019-0.784-2.473-2.25c-1.455-1.465-3.382-3.575-5.352-6.036
								c-1.969-2.464-3.603-4.809-4.712-6.55c-1.111-1.741-1.715-2.868-1.651-2.908c0.073-0.046,0.802,1,1.996,2.675
								c1.193,1.675,2.87,3.966,4.827,6.416c1.958,2.447,3.824,4.587,5.196,6.119C152.145,195.035,153.005,195.977,152.944,196.038z
								"/>
						</g>
					</g>
				</g>
			</g>
		</g>
		<g>
			<g>
				<g>
					<g>
						<path style="fill:#FFFFFF;" d="M43.529,195.558c4.726-5.831,9.452-11.662,14.178-17.493"/>
					</g>
				</g>
			</g>
			<g>
				<g>
					<g>
						<g>
							<path style="fill:#E0E0E0;" d="M57.707,178.065c0.126,0.102-2.945,4.102-6.86,8.932c-3.916,4.832-7.192,8.664-7.318,8.562
								c-0.126-0.102,2.945-4.101,6.861-8.932C54.304,181.796,57.581,177.962,57.707,178.065z"/>
						</g>
					</g>
				</g>
			</g>
		</g>
		<g>
			<g>
				<g>
					<g>
						<path style="fill:#E0E0E0;" d="M43.545,38.785c0.128-0.101,3.209,3.583,6.882,8.227c3.674,4.646,6.548,8.492,6.421,8.593
							c-0.128,0.101-3.208-3.582-6.882-8.228C46.292,42.733,43.417,38.886,43.545,38.785z"/>
					</g>
				</g>
			</g>
		</g>
		<g>
			<g>
				<g>
					<rect x="85.758" y="80.734" style="fill:#E0E0E0;" width="27.239" height="77.338"/>
				</g>
			</g>
		</g>
	</g>
	<g>
		<g>
			<g>
				<g>
					<polygon style="fill:#E0E0E0;" points="302.488,52.735 302.488,116.548 210.836,116.548 207.534,53.181 					"/>
				</g>
			</g>
		</g>
		<g>
			<g>
				<g>
					
						<rect x="221.744" y="38.971" transform="matrix(6.123234e-17 -1 1 6.123234e-17 168.5629 338.1577)" style="fill:#FFFFFF;" width="63.232" height="91.652"/>
				</g>
			</g>
			<g>
				<g>
					<path style="fill:#E0E0E0;" d="M299.621,116.848H207.1V52.747h92.522V116.848z M207.969,115.979h90.783V53.616h-90.783V115.979
						z"/>
				</g>
			</g>
		</g>
		<g>
			<g>
				<g>
					<g>
						<rect x="217.461" y="61.037" style="fill:#FFFFFF;" width="71.799" height="47.52"/>
					</g>
				</g>
			</g>
			<g>
				<g>
					<g>
						<g>
							<path style="fill:#E0E0E0;" d="M289.26,61.037c0,0-0.124,0.008-0.354,0.012c-0.243,0.003-0.581,0.007-1.021,0.012
								c-0.91,0.006-2.23,0.014-3.943,0.025c-3.449,0.013-8.463,0.032-14.796,0.056c-12.662,0.025-30.584,0.06-51.685,0.102
								l0.208-0.208c0.006,14.519,0.012,30.606,0.019,47.514v0.006l-0.226-0.226c27.085,0.017,52.056,0.033,71.799,0.046l-0.18,0.18
								c0.04-14.461,0.072-26.318,0.095-34.575c0.02-4.127,0.035-7.351,0.046-9.561c0.009-1.092,0.016-1.93,0.02-2.512
								C289.247,61.34,289.26,61.037,289.26,61.037s0.013,0.277,0.02,0.834c0.005,0.574,0.012,1.401,0.02,2.479
								c0.011,2.201,0.026,5.411,0.046,9.52c0.023,8.284,0.055,20.179,0.095,34.687l0.001,0.18l-0.181,0
								c-19.743,0.013-44.714,0.029-71.799,0.046l-0.227,0v-0.227v-0.006c0.007-16.908,0.013-32.995,0.019-47.514l0-0.208l0.208,0
								c21.157,0.042,39.126,0.077,51.821,0.102c6.313,0.024,11.311,0.043,14.749,0.056c1.695,0.011,3.001,0.019,3.902,0.025
								c0.43,0.005,0.76,0.009,0.998,0.012C289.153,61.029,289.26,61.037,289.26,61.037z"/>
						</g>
					</g>
				</g>
			</g>
		</g>
		<g>
			<g>
				<g>
					<g>
						<path style="fill:#E0E0E0;" d="M207.534,53.004c0.038-0.049,0.638,0.344,1.576,1.021c0.938,0.677,2.214,1.637,3.593,2.74
							c1.379,1.104,2.591,2.148,3.445,2.929c0.854,0.782,1.353,1.297,1.313,1.343c-0.085,0.096-2.289-1.721-5.041-3.919
							C209.666,54.923,207.454,53.107,207.534,53.004z"/>
					</g>
				</g>
			</g>
		</g>
		<g>
			<g>
				<g>
					<g>
						<path style="fill:#E0E0E0;" d="M299.186,53.181c0.078,0.098-2.082,1.936-4.823,4.105c-2.742,2.17-5.026,3.849-5.104,3.751
							c-0.078-0.098,2.081-1.936,4.823-4.106C296.824,54.763,299.109,53.083,299.186,53.181z"/>
					</g>
				</g>
			</g>
		</g>
		<g>
			<g>
				<g>
					<g>
						<path style="fill:#FFFFFF;" d="M299.114,116.423c-3.406-2.761-6.813-5.522-10.219-8.282"/>
					</g>
				</g>
			</g>
			<g>
				<g>
					<g>
						<g>
							<path style="fill:#E0E0E0;" d="M288.895,108.14c0.079-0.097,2.43,1.678,5.252,3.965c2.822,2.288,5.046,4.22,4.967,4.317
								s-2.43-1.678-5.252-3.965C291.04,110.17,288.816,108.237,288.895,108.14z"/>
						</g>
					</g>
				</g>
			</g>
		</g>
		<g>
			<g>
				<g>
					<g>
						<path style="fill:#E0E0E0;" d="M207.534,116.413c-0.078-0.098,2.059-1.917,4.772-4.063c2.714-2.146,4.976-3.806,5.053-3.708
							c0.078,0.098-2.059,1.917-4.772,4.063C209.874,114.851,207.612,116.511,207.534,116.413z"/>
					</g>
				</g>
			</g>
		</g>
		<g>
			<g>
				<g>
					
						<rect x="246.672" y="61.21" transform="matrix(6.123234e-17 -1 1 6.123234e-17 170.8291 338.426)" style="fill:#E0E0E0;" width="15.911" height="45.177"/>
				</g>
			</g>
		</g>
	</g>
	<g>
		<g>
			<g>
				<g>
					<path style="fill:#F5F5F5;" d="M77.317,466.156c-1.689-1.449-5.459-6.039-2.552-11.38c1.066-1.958,3.328-2.926,5.377-3.789
						c2.049-0.863,4.201-1.612,5.896-3.054c3.197-2.72,4.079-7.238,6.2-10.866c2.436-4.165,6.983-7.285,11.787-7.067
						c5.501,0.25,10.089,4.743,12.169,9.866c2.08,5.123,2.152,10.811,2.195,16.343c0.024,3.059-0.112,6.507-2.358,8.573
						c-2.071,1.905-5.188,1.928-7.994,1.842c-10.021-0.308-20.042-0.616-30.062-0.924"/>
				</g>
			</g>
		</g>
		<g>
			<g>
				<g>
					<g>
						<path style="fill:#E0E0E0;" d="M134.815,383.489h-79.06l14.241,84.918c0.623,3.709,3.306,6.568,6.75,7.56
							c0.091,0.029,0.185,0.049,0.277,0.076c0.235,0.06,0.462,0.14,0.704,0.182c0.521,0.108,1.06,0.163,1.608,0.185
							c0.004,0.026,0.009,0.055,0.013,0.081l0.386-0.061c0.001,0,0.002,0,0.003,0h35.236c0.663,0,1.31-0.068,1.936-0.193
							c4.161-0.644,7.492-3.983,7.998-8.3l6.865-58.51l0.31-2.326h-0.037l2.719-23.172L134.815,383.489z M119.9,437.656h-8.113
							l0.819-24.645h9.4L119.9,437.656z M122.793,413.011h7.767l-2.892,24.645h-6.982L122.793,413.011z M99.614,464.977
							l-0.493-21.41h11.684l-0.711,21.41H99.614z M86.983,443.566h11.353l0.493,21.41H88.647L86.983,443.566z M87.86,464.977h-9.518
							c-0.905-5.78-2.081-13.293-3.356-21.41h11.21L87.86,464.977z M86.523,437.656l-1.915-24.645h13.024l0.568,24.645H86.523z
							 M98.985,437.656l-0.568-24.645h13.403l-0.819,24.645H98.985z M98.281,407.101l-0.526-22.824h15.019l-0.758,22.824H98.281z
							 M97.496,407.101H84.149l-1.774-22.824H96.97L97.496,407.101z M83.362,407.101H69.241c-0.5-3.152-0.974-6.136-1.402-8.821
							c-1.473-9.228-2.027-12.697-2.334-14.003h16.084L83.362,407.101z M83.822,413.011l1.915,24.645H74.058
							c-0.393-2.501-0.791-5.03-1.189-7.562c-0.915-5.818-1.832-11.634-2.693-17.083H83.822z M73.264,437.656h-7.629l-4.134-24.645
							h7.88C70.586,420.627,71.921,429.104,73.264,437.656z M74.192,443.566c1.163,7.409,2.307,14.714,3.355,21.41h-7.33
							l-3.591-21.41H74.192z M110.879,464.977l0.711-21.41h7.805l-1.829,21.41H110.879z M112.802,407.101l0.758-22.824h10.901
							l-1.95,22.824H112.802z M64.756,384.277c0.313,1.65,1.756,10.631,3.689,22.824H60.51l-3.828-22.824H64.756z M124.464,464.977
							h-6.11l1.829-21.41h6.793L124.464,464.977z M131.254,407.101h-7.956l1.95-22.824h8.684L131.254,407.101z"/>
					</g>
				</g>
			</g>
		</g>
	</g>
	<g>
		<g>
			<g>
				<g>
					<g>
						<path style="fill:#F5F5F5;" d="M367.376,258.835c0,0.387,0,21.395,0,21.395h-3.572v2.322h3.572v14.319h66.773v-13.029h-4.946
							v-2.838h4.946v-4.257h2.198v-1.935h-2.61v-15.977H367.376z"/>
					</g>
				</g>
			</g>
			<g>
				<g>
					<g>
						<polygon style="fill:#E0E0E0;" points="416.417,258.897 416.417,296.633 434.149,296.633 434.149,283.603 429.203,283.603 
							429.203,281.004 434.149,281.092 434.149,276.835 436.391,276.837 436.348,274.637 433.737,274.573 433.737,258.835 						"/>
					</g>
				</g>
			</g>
			<g>
				<g>
					<g>
						<g>
							<path style="fill:#E0E0E0;" d="M417.681,282.244c0,0.131-12.083,0.237-26.984,0.237c-14.907,0-26.987-0.106-26.987-0.237
								c0-0.131,12.08-0.237,26.987-0.237C405.598,282.007,417.681,282.113,417.681,282.244z"/>
						</g>
					</g>
				</g>
			</g>
			<g>
				<g>
					<g>
						<g>
							<path style="fill:#E0E0E0;" d="M417.681,280.071c0,0.131-12.083,0.237-26.984,0.237c-14.907,0-26.987-0.106-26.987-0.237
								c0-0.131,12.08-0.237,26.987-0.237C405.598,279.834,417.681,279.94,417.681,280.071z"/>
						</g>
					</g>
				</g>
			</g>
			<g>
				<g>
					<g>
						<g>
							<path style="fill:#E0E0E0;" d="M421.147,274.222c0,0.131-12.083,0.237-26.984,0.237c-14.907,0-26.987-0.106-26.987-0.237
								c0-0.131,12.08-0.237,26.987-0.237C409.064,273.985,421.147,274.091,421.147,274.222z"/>
						</g>
					</g>
				</g>
			</g>
			<g>
				<g>
					<g>
						<g>
							<path style="fill:#E0E0E0;" d="M421.48,290.161c0,0.131-12.083,0.237-26.984,0.237c-14.907,0-26.987-0.106-26.987-0.237
								c0-0.131,12.08-0.237,26.987-0.237C409.398,289.924,421.48,290.03,421.48,290.161z"/>
						</g>
					</g>
				</g>
			</g>
		</g>
	</g>
	<g>
		<g>
			<g>
				<g>
					<g>
						<g>
							<g>
								<g>
									
										<rect x="277.904" y="356.737" transform="matrix(-1 -1.224647e-16 1.224647e-16 -1 564.4488 817.0103)" style="fill:#E0E0E0;" width="8.641" height="103.535"/>
								</g>
							</g>
						</g>
						<g>
							<g>
								<g>
									<g>
										<path style="fill:#EBEBEB;" d="M221.081,361.423h123.594l0,0c0-7.409-6.006-13.415-13.415-13.415h-96.763
											C227.087,348.008,221.081,354.014,221.081,361.423L221.081,361.423z"/>
										<path style="fill:#E0E0E0;" d="M345.175,361.923H220.581v-0.5c0-7.673,6.243-13.916,13.915-13.916h96.764
											c7.673,0,13.915,6.243,13.915,13.916V361.923z M221.591,360.923h122.575c-0.264-6.892-5.951-12.416-12.905-12.416h-96.764
											C227.543,348.507,221.854,354.032,221.591,360.923z"/>
									</g>
								</g>
							</g>
						</g>
						<g>
							<g>
								<g>
									<g>
										<path style="fill:#E0E0E0;" d="M273.83,361.689c0,0.176,3.395,0.318,7.582,0.318c4.188,0,7.582-0.142,7.582-0.318
											c0-0.176-3.394-0.318-7.582-0.318C277.224,361.371,273.83,361.513,273.83,361.689z"/>
									</g>
								</g>
							</g>
						</g>
					</g>
				</g>
				<g>
					<g>
						<g>
							<path style="fill:#EBEBEB;" d="M244.425,469.653h1.222c0-20.276,16.495-36.771,36.77-36.771
								c20.275,0,36.77,16.495,36.77,36.771h1.222c0-20.95-17.043-37.993-37.992-37.993
								C261.468,431.66,244.425,448.704,244.425,469.653z"/>
						</g>
					</g>
				</g>
				<g>
					<g>
						<g>
							<path style="fill:#E0E0E0;" d="M314.102,471.54c0,3.146,2.55,5.696,5.697,5.696c3.146,0,5.696-2.551,5.696-5.696
								c0-3.146-2.55-5.696-5.696-5.696C316.652,465.843,314.102,468.394,314.102,471.54z"/>
						</g>
					</g>
				</g>
				<g>
					<g>
						<g>
							<path style="fill:#E0E0E0;" d="M239.055,470.754c0,3.146,2.55,5.697,5.696,5.697c3.146,0,5.696-2.55,5.696-5.697
								c0-3.146-2.55-5.696-5.696-5.696C241.605,465.058,239.055,467.608,239.055,470.754z"/>
						</g>
					</g>
				</g>
				<g>
					<g>
						<g>
							<g>
								<path style="fill:#EBEBEB;" d="M244.792,460.273c0,0.176,16.532,0.318,36.921,0.318c20.396,0,36.925-0.143,36.925-0.318
									c0-0.176-16.529-0.318-36.925-0.318C261.324,459.955,244.792,460.097,244.792,460.273z"/>
							</g>
						</g>
					</g>
				</g>
			</g>
			<g>
				<g>
					<g>
						<path style="fill:#EBEBEB;" d="M348.305,254.239v76.217c0,9.996-8.103,18.099-18.099,18.099h-58.729l7.978-94.316
							c0-4.455,3.611-8.066,8.066-8.066h52.718C344.694,246.172,348.305,249.784,348.305,254.239z"/>
					</g>
				</g>
			</g>
			<g>
				<g>
					<g>
						<path style="fill:#E0E0E0;" d="M327.546,348.008c-0.009-0.007,0.037-0.082,0.135-0.223c0.118-0.171,0.259-0.376,0.431-0.625
							c0.39-0.539,0.946-1.35,1.615-2.42c1.323-2.142,3.087-5.382,4.375-9.708c0.646-2.156,1.179-4.575,1.455-7.208
							c0.312-2.628,0.233-5.464,0.232-8.464c-0.008-5.994-0.016-12.574-0.024-19.482c0.035-13.8,0.067-26.288,0.09-35.398
							c0.041-4.485,0.074-8.134,0.098-10.727c0.024-1.223,0.043-2.195,0.058-2.916c0.02-0.667,0.041-1.017,0.062-1.017
							c0.021,0,0.042,0.35,0.062,1.017c0.014,0.721,0.034,1.693,0.058,2.916c0.024,2.592,0.057,6.242,0.098,10.727
							c0.023,9.109,0.055,21.598,0.09,35.398c-0.009,6.908-0.017,13.487-0.024,19.482c-0.015,2.985,0.047,5.854-0.292,8.521
							c-0.302,2.664-0.866,5.106-1.546,7.278c-1.356,4.357-3.197,7.594-4.59,9.71c-0.705,1.057-1.294,1.848-1.718,2.365
							C327.796,347.759,327.564,348.022,327.546,348.008z"/>
					</g>
				</g>
			</g>
			<g>
				<g>
					<g>
						<path style="fill:#E0E0E0;" d="M295.567,348.049c0-0.042,0.664-0.078,1.865-0.107c1.311-0.016,3.024-0.036,5.09-0.061
							c4.298-0.025,10.236-0.017,16.794,0.03c3.278,0.032,6.408,0.036,9.242,0.109c2.833,0.05,5.441,0.206,7.54,0.823
							c2.11,0.585,3.625,1.581,4.534,2.375c0.464,0.393,0.784,0.738,0.985,0.986c0.208,0.241,0.309,0.374,0.293,0.388
							c-0.053,0.051-0.479-0.471-1.43-1.188c-0.938-0.721-2.434-1.626-4.497-2.141c-2.055-0.546-4.599-0.656-7.439-0.676
							c-2.853-0.018-5.971-0.039-9.244-0.06c-6.553-0.047-12.486-0.123-16.781-0.21c-2.064-0.054-3.777-0.1-5.087-0.134
							C296.232,348.136,295.567,348.091,295.567,348.049z"/>
					</g>
				</g>
			</g>
		</g>
	</g>
</g>
<g id="Background_Simple" style="display:none;">
	<path style="display:inline;fill:#EBEBEB;" d="M428.648,92.173c-19.238-28.618-50.846-49.964-85.279-51.832
		c-34.433-1.867-70.341,18.35-82.182,50.737c-9.814,26.843-3.603,59.358-20.453,82.443c-11.932,16.347-32.769,23.658-52.811,26.471
		c-20.042,2.813-40.588,2.08-60.286,6.725c-51.545,12.153-93.432,51.912-84.328,121.776
		c10.656,81.772,90.355,106.007,163.52,103.594l25.518-0.692c67.797-1.837,130.191-39.439,165.166-73.021
		c0.431-0.414,0.76-0.924,1.14-1.388c37.987-46.448,61.001-100.008,59.993-160.003C458.067,162.504,447.886,120.791,428.648,92.173z
		"/>
</g>
<g id="Floor">
	<g>
		<g>
			<path style="fill:#263238;" d="M469.705,476.491c0,0.144-98.373,0.26-219.695,0.26c-121.364,0-219.716-0.117-219.716-0.26
				c0-0.144,98.352-0.26,219.716-0.26C371.332,476.23,469.705,476.347,469.705,476.491z"/>
		</g>
	</g>
</g>
<g id="Desk">
	<g>
		<g>
			<g>
				<g>
					<g>
						<g>
							
								<rect x="128.179" y="224.215" transform="matrix(6.123234e-17 -1 1 6.123234e-17 -119.7802 383.4604)" style="fill:#E8505B;" width="7.322" height="54.811"/>
						</g>
					</g>
				</g>
			</g>
			<g>
				<g>
					<g>
						<g>
							<g>
								<path style="fill:#FAFAFA;" d="M111.902,248.262c0.19,0,0.345,1.536,0.345,3.43c0,1.895-0.154,3.431-0.345,3.431
									s-0.345-1.536-0.345-3.431C111.557,249.799,111.711,248.262,111.902,248.262z"/>
							</g>
						</g>
					</g>
				</g>
			</g>
			<g>
				<g>
					<g>
						<g>
							<g>
								<path style="fill:#FAFAFA;" d="M110.708,248.113c0.191,0,0.345,1.536,0.345,3.43c0,1.895-0.154,3.431-0.345,3.431
									c-0.19,0-0.345-1.536-0.345-3.431C110.364,249.649,110.518,248.113,110.708,248.113z"/>
							</g>
						</g>
					</g>
				</g>
			</g>
			<g>
				<g>
					<g>
						<g>
							<g>
								<path style="fill:#FAFAFA;" d="M155.007,248.262c0.191,0,0.345,1.536,0.345,3.43c0,1.895-0.154,3.431-0.345,3.431
									c-0.19,0-0.345-1.536-0.345-3.431C154.663,249.799,154.817,248.262,155.007,248.262z"/>
							</g>
						</g>
					</g>
				</g>
			</g>
			<g>
				<g>
					<g>
						<g>
							<g>
								<path style="fill:#FAFAFA;" d="M153.814,248.113c0.19,0,0.345,1.536,0.345,3.43c0,1.895-0.154,3.431-0.345,3.431
									c-0.19,0-0.345-1.536-0.345-3.431C153.469,249.649,153.624,248.113,153.814,248.113z"/>
							</g>
						</g>
					</g>
				</g>
			</g>
			<g>
				<g>
					<g>
						<g>
							<g>
								<path style="fill:#FAFAFA;" d="M146.655,251.842c0,0.191-6.278,0.345-14.02,0.345c-7.745,0-14.021-0.154-14.021-0.345
									c0-0.19,6.276-0.345,14.021-0.345C140.377,251.497,146.655,251.652,146.655,251.842z"/>
							</g>
						</g>
					</g>
				</g>
			</g>
		</g>
		<g>
			<g>
				<g>
					<g>
						<g>
							
								<rect x="124.28" y="260.844" transform="matrix(6.123234e-17 -1 1 6.123234e-17 -156.6469 419.8527)" style="fill:#E8505B;" width="14.645" height="54.811"/>
						</g>
					</g>
				</g>
			</g>
			<g>
				<g>
					<g>
						<g>
							<g>
								<path style="fill:#FAFAFA;" d="M159.711,291.453c0.005,0.011-0.096,0.069-0.298,0.171c-0.201,0.104-0.507,0.245-0.913,0.417
									c-0.815,0.333-2.045,0.805-3.716,1.063c-1.643,0.234-3.848,0.3-6.03-0.856c-1.071-0.573-2.09-1.442-2.864-2.596
									c-0.758-1.151-1.245-2.655-0.997-4.219c0.131-0.778,0.456-1.546,1.007-2.181c0.536-0.636,1.395-1.104,2.312-1.05
									c0.918,0.04,1.747,0.568,2.323,1.253c0.58,0.687,0.978,1.567,1.061,2.498c0.217,1.857-0.565,3.782-1.89,5.19
									c-1.304,1.459-3.253,2.347-5.267,2.575c-2.028,0.24-4.125-0.081-6.115-0.759c-1.989-0.686-3.954-1.802-5.342-3.59
									c-0.681-0.888-1.173-1.992-1.245-3.162c-0.101-1.166,0.271-2.42,1.167-3.29c0.446-0.434,1.069-0.725,1.715-0.752
									c0.647-0.032,1.271,0.179,1.792,0.504c1.057,0.657,1.733,1.779,2.017,2.955c0.515,2.395-0.433,4.889-2.161,6.451
									c-1.734,1.577-4.004,2.277-6.171,2.512c-2.182,0.219-4.376,0.056-6.397-0.63c-2.013-0.67-3.825-1.995-4.867-3.783
									c-1.06-1.748-1.408-3.961-0.61-5.818c0.375-0.92,1.222-1.736,2.236-1.892c0.988-0.185,1.999,0.088,2.761,0.666
									c1.547,1.227,1.805,3.332,1.306,4.934c-0.507,1.647-1.615,2.91-2.763,3.892c-2.343,1.979-5.117,2.834-7.516,2.92
									c-2.425,0.086-4.464-0.583-5.955-1.353c-1.503-0.781-2.492-1.669-3.105-2.302c-0.302-0.324-0.523-0.578-0.656-0.762
									c-0.137-0.18-0.203-0.276-0.193-0.283c0.07-0.095,1.097,1.599,4.075,3.107c1.478,0.718,3.475,1.327,5.818,1.208
									c2.321-0.118,4.989-0.983,7.216-2.905c1.095-0.953,2.126-2.171,2.571-3.672c0.448-1.452,0.157-3.33-1.14-4.327
									c-0.634-0.479-1.505-0.702-2.304-0.544c-0.813,0.136-1.457,0.754-1.793,1.556c-0.691,1.627-0.389,3.642,0.599,5.248
									c0.969,1.643,2.629,2.855,4.535,3.487c1.904,0.642,4.022,0.797,6.111,0.581c2.075-0.228,4.203-0.904,5.782-2.348
									c1.559-1.398,2.41-3.693,1.951-5.789c-0.248-1.026-0.837-1.986-1.709-2.525c-0.856-0.567-1.974-0.549-2.673,0.162
									c-0.708,0.683-1.051,1.744-0.957,2.744c0.062,1.018,0.486,1.989,1.104,2.801c1.257,1.634,3.122,2.719,5.016,3.374
									c1.915,0.66,3.921,0.969,5.827,0.751c1.903-0.211,3.684-1.016,4.899-2.357c1.235-1.297,1.949-3.056,1.765-4.715
									c-0.133-1.611-1.362-3.181-2.843-3.281c-0.73-0.048-1.429,0.31-1.903,0.857c-0.482,0.543-0.786,1.233-0.909,1.924
									c-0.239,1.413,0.185,2.806,0.884,3.898c0.714,1.094,1.671,1.937,2.682,2.497c2.046,1.129,4.195,1.12,5.808,0.928
									c1.644-0.213,2.878-0.637,3.703-0.927C159.275,291.611,159.699,291.427,159.711,291.453z"/>
							</g>
						</g>
					</g>
				</g>
			</g>
		</g>
		<g>
			<g>
				<g>
					<g>
						<g>
							
								<rect x="121.346" y="243.24" transform="matrix(6.123234e-17 -1 1 6.123234e-17 -134.1473 402.2479)" style="fill:#263238;" width="25.409" height="49.916"/>
						</g>
					</g>
				</g>
			</g>
			<g>
				<g>
					<g>
						<g>
							<g>
								<path style="fill:#E0E0E0;" d="M117.386,256.365c0.191,0,0.345,5.506,0.345,12.297c0,6.793-0.154,12.298-0.345,12.298
									c-0.19,0-0.345-5.505-0.345-12.298C117.042,261.871,117.196,256.365,117.386,256.365z"/>
							</g>
						</g>
					</g>
				</g>
			</g>
			<g>
				<g>
					<g>
						<g>
							<g>
								<path style="fill:#E0E0E0;" d="M121.17,256.05c0.19,0,0.345,5.436,0.345,12.139c0,6.706-0.154,12.14-0.345,12.14
									c-0.19,0-0.345-5.435-0.345-12.14C120.825,261.486,120.98,256.05,121.17,256.05z"/>
							</g>
						</g>
					</g>
				</g>
			</g>
			<g>
				<g>
					<g>
						<g>
							<g>
								<path style="fill:#E0E0E0;" d="M153.366,255.234c0.191,0,0.345,5.724,0.345,12.784c0,7.062-0.154,12.785-0.345,12.785
									c-0.19,0-0.345-5.723-0.345-12.785C153.021,260.958,153.176,255.234,153.366,255.234z"/>
							</g>
						</g>
					</g>
				</g>
			</g>
			<g>
				<g>
					<g>
						<g>
							<g>
								<path style="fill:#E0E0E0;" d="M148.918,255.577c0.19,0,0.345,5.577,0.345,12.454c0,6.88-0.154,12.456-0.345,12.456
									c-0.19,0-0.345-5.575-0.345-12.456C148.573,261.154,148.728,255.577,148.918,255.577z"/>
							</g>
						</g>
					</g>
				</g>
			</g>
		</g>
	</g>
	<g>
		<g>
			<g>
				<g>
					<g>
						<path style="fill:#E8505B;" d="M419.503,416.163l-1.602,29.471c-0.057,1.05-0.921,1.874-1.972,1.882l-53.031,0.388
							c-1.099,0.008-1.996-0.876-2.004-1.975l-0.168-22.94c-0.008-1.104,0.884-2.003,1.988-2.004l32.615-0.029
							c0.527,0,1.032-0.21,1.405-0.582l5.627-5.625c0.37-0.37,0.87-0.579,1.392-0.582l13.749-0.101
							C418.649,414.057,419.565,415.017,419.503,416.163z"/>
					</g>
				</g>
			</g>
			<g style="opacity:0.3;">
				<g>
					<g>
						<path d="M419.503,416.163l-1.602,29.471c-0.057,1.05-0.921,1.874-1.972,1.882l-53.031,0.388
							c-1.099,0.008-1.996-0.876-2.004-1.975l-0.168-22.94c-0.008-1.104,0.884-2.003,1.988-2.004l32.615-0.029
							c0.527,0,1.032-0.21,1.405-0.582l5.627-5.625c0.37-0.37,0.87-0.579,1.392-0.582l13.749-0.101
							C418.649,414.057,419.565,415.017,419.503,416.163z"/>
					</g>
				</g>
			</g>
			<g>
				<g>
					<g>
						
							<rect x="360.811" y="417.305" transform="matrix(-1 0.0073 -0.0073 -1 782.7407 866.3677)" style="fill:#F5F5F5;" width="57.944" height="34.625"/>
					</g>
				</g>
			</g>
			<g>
				<g>
					<g>
						<path style="fill:#E8505B;" d="M423.26,420.166l-4.159,36.139c-0.074,0.642-0.615,1.128-1.262,1.133l-56.469,0.414
							c-0.668,0.005-1.227-0.505-1.284-1.17l-3.107-36.086c-0.064-0.743,0.519-1.384,1.265-1.389l63.736-0.467
							C422.748,418.735,423.348,419.403,423.26,420.166z"/>
					</g>
				</g>
			</g>
		</g>
		<g>
			<g>
				<g>
					<g>
						<path style="fill:#E8505B;" d="M435.105,410.603l-1.602,29.471c-0.057,1.05-0.921,1.874-1.972,1.882l-53.031,0.389
							c-1.099,0.008-1.996-0.876-2.004-1.975l-0.168-22.94c-0.008-1.104,0.884-2.003,1.988-2.004l32.615-0.029
							c0.527,0,1.032-0.21,1.405-0.582l5.627-5.625c0.369-0.369,0.87-0.579,1.392-0.582l13.749-0.101
							C434.251,408.497,435.167,409.458,435.105,410.603z"/>
					</g>
				</g>
			</g>
			<g style="opacity:0.3;">
				<g>
					<g>
						<path d="M435.105,410.603l-1.602,29.471c-0.057,1.05-0.921,1.874-1.972,1.882l-53.031,0.389
							c-1.099,0.008-1.996-0.876-2.004-1.975l-0.168-22.94c-0.008-1.104,0.884-2.003,1.988-2.004l32.615-0.029
							c0.527,0,1.032-0.21,1.405-0.582l5.627-5.625c0.369-0.369,0.87-0.579,1.392-0.582l13.749-0.101
							C434.251,408.497,435.167,409.458,435.105,410.603z"/>
					</g>
				</g>
			</g>
			<g>
				<g>
					<g>
						
							<rect x="376.413" y="411.745" transform="matrix(-1 0.0073 -0.0073 -1 813.9044 855.1333)" style="fill:#F5F5F5;" width="57.945" height="34.625"/>
					</g>
				</g>
			</g>
			<g>
				<g>
					<g>
						<path style="fill:#E8505B;" d="M438.862,414.606l-4.159,36.139c-0.074,0.642-0.615,1.129-1.262,1.133l-56.469,0.414
							c-0.668,0.005-1.227-0.505-1.284-1.17l-3.108-36.086c-0.064-0.743,0.519-1.384,1.265-1.389l63.736-0.467
							C438.35,413.175,438.95,413.843,438.862,414.606z"/>
					</g>
				</g>
			</g>
			<g style="opacity:0.3;">
				<g>
					<g>
						<path d="M438.862,414.606l-4.159,36.139c-0.074,0.642-0.615,1.129-1.262,1.133l-56.469,0.414
							c-0.668,0.005-1.227-0.505-1.284-1.17l-3.108-36.086c-0.064-0.743,0.519-1.384,1.265-1.389l63.736-0.467
							C438.35,413.175,438.95,413.843,438.862,414.606z"/>
					</g>
				</g>
			</g>
		</g>
		<g>
			<g>
				<g>
					<g>
						<path style="fill:#E8505B;" d="M452.689,417.504l-1.602,29.471c-0.057,1.05-0.921,1.874-1.972,1.882l-53.031,0.388
							c-1.099,0.008-1.996-0.876-2.004-1.975l-0.168-22.94c-0.008-1.104,0.884-2.003,1.988-2.004l32.615-0.029
							c0.527,0,1.032-0.21,1.405-0.583l5.627-5.625c0.37-0.37,0.87-0.579,1.392-0.582l13.749-0.101
							C451.834,415.398,452.751,416.358,452.689,417.504z"/>
					</g>
				</g>
			</g>
			<g>
				<g>
					<g>
						
							<rect x="393.997" y="418.646" transform="matrix(-1 0.0073 -0.0073 -1 849.1202 868.8068)" style="fill:#F5F5F5;" width="57.944" height="34.625"/>
					</g>
				</g>
			</g>
			<g>
				<g>
					<g>
						<path style="fill:#E8505B;" d="M456.445,421.507l-4.159,36.139c-0.074,0.642-0.615,1.128-1.262,1.133l-56.469,0.414
							c-0.668,0.005-1.227-0.504-1.284-1.17l-3.108-36.086c-0.064-0.743,0.519-1.384,1.266-1.389l63.736-0.467
							C455.933,420.076,456.533,420.744,456.445,421.507z"/>
					</g>
				</g>
			</g>
		</g>
		<g>
			<g>
				<g>
					<path style="fill:#455A64;" d="M390.159,426.423v50.13h72.319v-50.13H390.159z M413.766,435.441
						c0-2.044,1.657-3.701,3.701-3.701h17.702c2.044,0,3.701,1.657,3.701,3.701c0,2.044-1.657,3.701-3.701,3.701h-17.702
						C415.423,439.142,413.766,437.485,413.766,435.441z"/>
				</g>
			</g>
		</g>
		<g>
			<g>
				<g>
					<path style="fill:#263238;" d="M351.172,426.423v50.13h38.987v-50.13H351.172z"/>
				</g>
			</g>
		</g>
	</g>
	<g>
		<g>
			<g>
				<rect x="70.21" y="295.572" style="fill:#263238;" width="378.31" height="12.126"/>
			</g>
		</g>
		<g>
			<g>
				<polygon style="fill:#263238;" points="88.895,306.207 51.48,476.615 57.809,476.615 102.11,307.699 				"/>
			</g>
		</g>
		<g>
			<g>
				<polygon style="fill:#263238;" points="403.851,305.85 441.258,476.615 434.929,476.615 390.628,307.699 				"/>
			</g>
		</g>
	</g>
</g>
<g id="Plant">
	<g>
		<g>
			<g>
				<g>
					<g>
						<g>
							<path style="fill:#263238;" d="M129.514,228.115c0.051,0.081-1.012,0.809-2.662,2.063c-1.651,1.253-3.867,3.067-6.122,5.279
								c-2.251,2.216-4.104,4.401-5.385,6.03c-1.283,1.628-2.029,2.678-2.109,2.626c-0.063-0.04,0.555-1.178,1.759-2.888
								c1.201-1.709,3.024-3.967,5.302-6.209c2.281-2.238,4.569-4.021,6.299-5.192C128.327,228.65,129.475,228.051,129.514,228.115z
								"/>
						</g>
					</g>
				</g>
				<g>
					<g>
						<g>
							<path style="fill:#263238;" d="M127.335,219.179c0.166,0.04-0.401,2.931-1.266,6.456c-0.866,3.526-1.7,6.344-1.863,6.294
								c-0.163-0.049,0.404-2.939,1.267-6.456C126.335,221.957,127.17,219.139,127.335,219.179z"/>
						</g>
					</g>
				</g>
				<g>
					<g>
						<path style="fill:#455A64;" d="M126.388,218.693c-0.432,0.191-0.556,1.244-0.199,1.752c0.356,0.507,1.131,0.594,1.671,0.29
							c0.638-0.359,0.947-1.263,0.557-1.882c-0.391-0.619-1.56-0.753-2.079-0.129"/>
					</g>
				</g>
				<g>
					<g>
						<g>
							<path style="fill:#263238;" d="M130.925,222.755c0.071,0.155-0.967,0.78-2.317,1.395c-1.351,0.615-2.503,0.988-2.573,0.833
								c-0.071-0.155,0.966-0.78,2.317-1.395C129.702,222.973,130.854,222.6,130.925,222.755z"/>
						</g>
					</g>
				</g>
				<g>
					<g>
						<path style="fill:#455A64;" d="M130.82,221.745c-0.359,0.273-0.701,0.609-0.821,1.043c-0.12,0.434,0.063,0.978,0.489,1.125
							c0.275,0.095,0.59,0.006,0.816-0.177c0.226-0.183,0.373-0.447,0.472-0.72c0.107-0.294,0.163-0.627,0.047-0.918
							c-0.116-0.291-0.452-0.509-0.748-0.407"/>
					</g>
				</g>
				<g>
					<g>
						<path style="fill:#455A64;" d="M130.792,226.944c-0.652-0.023-1.256,0.579-1.238,1.23c0.018,0.652,0.655,1.218,1.304,1.161
							c0.649-0.057,1.178-0.723,1.086-1.369c-0.092-0.645-0.785-1.138-1.425-1.013"/>
					</g>
				</g>
			</g>
			<g>
				<g>
					<g>
						<g>
							<g>
								<g>
									<g>
										<g>
											<path style="fill:#263238;" d="M103.199,191.842c0.043,0,0.095,0.745,0.152,2.091c0.047,1.448,0.109,3.371,0.185,5.701
												c0.129,4.813,0.265,11.462,0.377,18.804c0.112,7.345,0.178,13.995,0.196,18.809c-0.005,2.33-0.009,4.253-0.011,5.701
												c-0.017,1.346-0.046,2.092-0.089,2.092c-0.043,0.001-0.095-0.743-0.152-2.088c-0.047-1.447-0.109-3.37-0.185-5.699
												c-0.129-4.813-0.265-11.464-0.377-18.812c-0.112-7.345-0.178-13.996-0.196-18.809c0.005-2.329,0.009-4.253,0.011-5.7
												C103.127,192.586,103.156,191.842,103.199,191.842z"/>
										</g>
									</g>
								</g>
							</g>
							<g>
								<g>
									<g>
										<path style="fill:#E8505B;" d="M112.566,187.829c0.405,5.109-3.408,9.578-8.516,9.983
											c-5.108,0.405-9.578-3.408-9.983-8.516c-0.405-5.108,3.408-9.578,8.516-9.983
											C107.692,178.907,112.161,182.72,112.566,187.829z"/>
									</g>
								</g>
								<g style="opacity:0.3;">
									<g>
										<g>
											<path d="M102.935,197.865c-0.095-0.014,0.027-1.039,0.079-2.685c0.042-1.633-0.009-3.953-0.949-6.244
												c-0.949-2.278-2.732-3.839-4.19-4.489c-1.474-0.68-2.542-0.586-2.534-0.706c-0.002-0.036,0.255-0.095,0.731-0.096
												c0.475-0.006,1.171,0.095,1.974,0.4c1.603,0.588,3.572,2.209,4.59,4.654c0.998,2.437,0.968,4.855,0.815,6.507
												C103.285,196.878,103.009,197.878,102.935,197.865z"/>
										</g>
									</g>
								</g>
								<g style="opacity:0.3;">
									<g>
										<g>
											<path d="M111.588,184.936c0.024,0.188-2.601,0.007-5.148,1.667c-2.559,1.643-3.469,4.112-3.631,4.013
												c-0.071-0.024,0.046-0.662,0.541-1.579c0.486-0.911,1.405-2.08,2.755-2.952c1.349-0.873,2.791-1.233,3.821-1.302
												C110.965,184.706,111.596,184.862,111.588,184.936z"/>
										</g>
									</g>
								</g>
								<g style="opacity:0.3;">
									<g>
										<g>
											<path d="M107.438,185.675c-0.102,0.023-0.22-0.613-0.796-1.402c-0.549-0.779-1.67-1.704-3.121-1.834
												c-1.452-0.112-2.712,0.615-3.382,1.292c-0.698,0.684-0.921,1.29-1.017,1.251c-0.064-0.01,0.011-0.705,0.695-1.546
												c0.651-0.823,2.043-1.741,3.755-1.612c1.71,0.157,2.93,1.293,3.436,2.212
												C107.545,184.978,107.503,185.676,107.438,185.675z"/>
										</g>
									</g>
								</g>
								<g style="opacity:0.3;">
									<g>
										<g>
											<path d="M104.881,187.454c-0.181,0.017-0.378-1.258-1.16-2.586c-0.76-1.341-1.767-2.148-1.661-2.296
												c0.07-0.145,1.349,0.505,2.196,1.987C105.117,186.033,105.042,187.465,104.881,187.454z"/>
										</g>
									</g>
								</g>
								<g style="opacity:0.3;">
									<g>
										<g>
											<path d="M103.975,184.692c0.044,0.183-0.722,0.426-1.357,1.045c-0.631,0.634-1.075,1.337-1.239,1.241
												c-0.129-0.064,0.043-0.899,0.812-1.687C103.018,184.512,103.969,184.542,103.975,184.692z"/>
										</g>
									</g>
								</g>
							</g>
						</g>
						<g>
							<g>
								<g>
									<g>
										<path style="fill:#263238;" d="M83.436,220.323c0.162-0.052,2.715,7.462,5.7,16.781c2.986,9.322,5.274,16.919,5.112,16.97
											c-0.162,0.052-2.714-7.46-5.7-16.782C85.562,227.973,83.273,220.375,83.436,220.323z"/>
									</g>
								</g>
							</g>
							<g>
								<g>
									<g>
										<path style="fill:#263238;" d="M89.375,238.864c-0.104,0.111-2.71-1.948-5.97-4.455c-3.253-2.515-5.807-4.674-5.694-4.815
											c0.101-0.125,2.815,1.808,6.074,4.327C87.049,236.431,89.503,238.724,89.375,238.864z"/>
									</g>
								</g>
							</g>
							<g>
								<g>
									<path style="fill:#455A64;" d="M76.262,228.825c-0.502,0.459-0.319,1.484,0.246,2.05c0.566,0.566,1.886,0.294,2.313-0.383
										c0.427-0.677,0.133-1.683-0.571-2.063c-0.704-0.38-1.673-0.107-2.114,0.561"/>
								</g>
							</g>
							<g>
								<g>
									<g>
										<path style="fill:#263238;" d="M89.376,216.657c0.188,0.038-0.372,2.715-1.477,5.852c-1.101,3.134-1.784,5.715-1.941,5.69
											c-0.182-0.027,0.248-2.736,1.355-5.886C88.419,219.173,89.228,216.629,89.376,216.657z"/>
									</g>
								</g>
							</g>
							<g>
								<g>
									<path style="fill:#455A64;" d="M89.085,214.343c-0.617,0.442-0.645,0.709-0.881,1.43c-0.237,0.721,0.102,1.676,0.845,1.831
										c0.695,0.144,1.339-0.454,1.632-1.1c0.269-0.591,0.346-1.325-0.016-1.864c-0.362-0.539-1.263-0.697-1.659-0.183"/>
								</g>
							</g>
							<g>
								<g>
									<g>
										<path style="fill:#263238;" d="M78.453,236.553c-0.062-0.159,1.035-0.771,2.449-1.367
											c1.415-0.596,2.618-0.952,2.689-0.797c0.071,0.155-1.026,0.767-2.449,1.366C79.719,236.355,78.515,236.712,78.453,236.553
											z"/>
									</g>
								</g>
							</g>
							<g>
								<g>
									<path style="fill:#455A64;" d="M76.236,235.518c-0.426,0.221-0.602,1.247-0.579,1.677c0.023,0.43,0.294,0.825,0.657,1.057
										c0.672,0.429,1.652,0.276,2.162-0.336c0.509-0.612,0.481-1.604-0.063-2.186C77.87,235.147,76.882,235.051,76.236,235.518"
										/>
								</g>
							</g>
							<g>
								<g>
									<path style="fill:#455A64;" d="M80.697,218.585c-0.215,0.949,0.283,2.012,1.15,2.454c0.867,0.441,2.02,0.219,2.661-0.513
										c0.301-0.344,0.494-0.806,0.428-1.259c-0.119-0.816-1.17-1.77-1.992-1.83C81.76,217.349,81.061,217.966,80.697,218.585"/>
								</g>
							</g>
						</g>
						<g>
							<g>
								<g>
									<g>
										<path style="fill:#263238;" d="M112.49,227.822c0.08,0.034-0.224,0.963-0.735,2.456c-0.606,1.724-1.291,3.67-2.046,5.817
											c-0.773,2.141-1.474,4.082-2.095,5.801c-0.549,1.48-0.901,2.392-0.984,2.367c-0.177-0.052,0.866-3.833,2.497-8.375
											C110.736,231.34,112.321,227.751,112.49,227.822z"/>
									</g>
								</g>
							</g>
							<g>
								<g>
									<g>
										<path style="fill:#E8505B;" d="M122.341,223.563c-0.912,4.29-5.128,7.029-9.418,6.118
											c-4.29-0.911-7.029-5.128-6.118-9.418c0.912-4.29,5.128-7.029,9.418-6.118
											C120.513,215.056,123.252,219.273,122.341,223.563z"/>
									</g>
								</g>
								<g style="opacity:0.3;">
									<g>
										<g>
											<path d="M111.995,229.453c-0.086-0.04,0.254-0.856,0.689-2.195c0.424-1.33,0.939-3.241,0.727-5.339
												c-0.223-2.087-1.294-3.794-2.321-4.684c-1.032-0.918-1.925-1.112-1.887-1.221c-0.005-0.056,0.969-0.018,2.165,0.884
												c1.183,0.871,2.416,2.689,2.657,4.956c0.226,2.254-0.394,4.236-0.931,5.553
												C112.543,228.738,112.063,229.486,111.995,229.453z"/>
										</g>
									</g>
								</g>
								<g style="opacity:0.3;">
									<g>
										<g>
											<path d="M122.243,220.951c-0.037,0.182-2.142-0.58-4.617,0.157c-2.482,0.719-3.839,2.499-3.969,2.366
												c-0.062-0.044,0.181-0.547,0.807-1.187c0.618-0.637,1.66-1.382,2.988-1.771c1.327-0.39,2.606-0.329,3.47-0.127
												C121.795,220.589,122.271,220.88,122.243,220.951z"/>
										</g>
									</g>
								</g>
								<g style="opacity:0.3;">
									<g>
										<g>
											<path d="M118.658,220.547c-0.101-0.008-0.056-0.557-0.342-1.336c-0.267-0.764-0.959-1.779-2.1-2.232
												c-1.147-0.439-2.344-0.16-3.057,0.222c-0.737,0.38-1.076,0.814-1.155,0.752c-0.06-0.03,0.162-0.591,0.931-1.126
												c0.736-0.527,2.115-0.952,3.506-0.423c1.382,0.552,2.109,1.798,2.294,2.684
												C118.939,220.002,118.722,220.565,118.658,220.547z"/>
										</g>
									</g>
								</g>
								<g style="opacity:0.3;">
									<g>
										<g>
											<path d="M116.126,221.384c-0.176-0.037-0.05-1.126-0.365-2.394c-0.294-1.274-0.901-2.186-0.761-2.299
												c0.111-0.118,1.024,0.721,1.362,2.155C116.712,220.277,116.279,221.439,116.126,221.384z"/>
										</g>
									</g>
								</g>
								<g style="opacity:0.3;">
									<g>
										<g>
											<path d="M116.055,218.897c-0.012,0.185-0.693,0.22-1.348,0.567c-0.659,0.359-1.21,0.812-1.339,0.677
												c-0.107-0.101,0.221-0.759,1.056-1.226C115.311,218.47,116.09,218.749,116.055,218.897z"/>
										</g>
									</g>
								</g>
							</g>
						</g>
						<g>
							<g>
								<g>
									<g>
										<path style="fill:#263238;" d="M94.205,211.166c0.042-0.004,0.15,0.467,0.307,1.32c0.166,0.986,0.37,2.194,0.61,3.619
											c0.488,3.058,1.119,7.286,1.779,11.96c0.66,4.676,1.222,8.912,1.599,11.984c0.163,1.434,0.302,2.65,0.415,3.642
											c0.084,0.862,0.111,1.342,0.069,1.348c-0.042,0.006-0.149-0.462-0.307-1.314c-0.166-0.985-0.369-2.193-0.609-3.617
											c-0.488-3.058-1.12-7.291-1.78-11.971c-0.66-4.679-1.223-8.919-1.6-11.99c-0.163-1.433-0.302-2.649-0.414-3.64
											C94.189,211.648,94.163,211.17,94.205,211.166z"/>
									</g>
								</g>
							</g>
							<g>
								<g>
									<g>
										<path style="fill:#E8505B;" d="M100.955,202.822c1.183,4.223-1.281,8.606-5.504,9.789
											c-4.223,1.183-8.606-1.281-9.79-5.504c-1.183-4.223,1.281-8.606,5.504-9.789
											C95.389,196.135,99.772,198.599,100.955,202.822z"/>
									</g>
								</g>
								<g style="opacity:0.3;">
									<g>
										<g>
											<path d="M94.524,212.841c-0.094,0.005-0.172-0.876-0.408-2.264c-0.242-1.375-0.672-3.307-1.834-5.066
												c-1.166-1.745-2.907-2.76-4.229-3.072c-1.34-0.334-2.221-0.092-2.238-0.205c-0.03-0.047,0.85-0.465,2.328-0.222
												c1.452,0.223,3.388,1.26,4.653,3.157c1.246,1.892,1.616,3.935,1.752,5.351C94.678,211.953,94.599,212.838,94.524,212.841
												z"/>
										</g>
									</g>
								</g>
								<g style="opacity:0.3;">
									<g>
										<g>
											<path d="M99.656,200.554c0.052,0.178-2.167,0.48-4.017,2.282c-1.865,1.788-2.241,3.995-2.418,3.937
												c-0.075-0.01-0.093-0.569,0.164-1.426c0.251-0.851,0.829-1.994,1.825-2.955c0.994-0.962,2.156-1.5,3.015-1.722
												C99.091,200.441,99.649,200.478,99.656,200.554z"/>
										</g>
									</g>
								</g>
								<g style="opacity:0.3;">
									<g>
										<g>
											<path d="M96.293,201.86c-0.093,0.04-0.308-0.467-0.923-1.025c-0.591-0.553-1.675-1.131-2.896-1.003
												c-1.22,0.143-2.15,0.946-2.605,1.615c-0.477,0.678-0.575,1.22-0.675,1.202c-0.067,0.001-0.131-0.599,0.302-1.43
												c0.408-0.808,1.432-1.824,2.91-2.001c1.48-0.152,2.702,0.614,3.278,1.313C96.289,201.246,96.359,201.846,96.293,201.86z"
												/>
										</g>
									</g>
								</g>
								<g style="opacity:0.3;">
									<g>
										<g>
											<path d="M94.439,203.775c-0.173,0.049-0.566-0.974-1.434-1.951c-0.852-0.992-1.813-1.519-1.741-1.684
												c0.043-0.156,1.241,0.164,2.206,1.277C94.443,202.523,94.6,203.754,94.439,203.775z"/>
										</g>
									</g>
								</g>
								<g style="opacity:0.3;">
									<g>
										<g>
											<path d="M93.222,201.606c0.076,0.169-0.511,0.517-0.931,1.127c-0.418,0.623-0.695,1.282-0.872,1.221
												c-0.142-0.04-0.157-0.775,0.367-1.576C92.364,201.573,93.184,201.458,93.222,201.606z"/>
										</g>
									</g>
								</g>
							</g>
						</g>
					</g>
				</g>
			</g>
			<g>
				<g>
					<polygon style="fill:#455A64;" points="95.341,295.636 88.129,243.633 119.156,243.633 112.822,295.636 					"/>
				</g>
			</g>
		</g>
		<g>
			<g>
				<path style="fill:#FAFAFA;" d="M116.917,263.97c0,0.144-5.814,0.26-12.983,0.26c-7.172,0-12.985-0.117-12.985-0.26
					s5.812-0.26,12.985-0.26C111.104,263.71,116.917,263.827,116.917,263.97z"/>
			</g>
		</g>
		<g>
			<g>
				<path style="fill:#FAFAFA;" d="M116.271,267.315c0,0.144-5.565,0.26-12.428,0.26c-6.866,0-12.43-0.116-12.43-0.26
					c0-0.144,5.564-0.26,12.43-0.26C110.706,267.055,116.271,267.171,116.271,267.315z"/>
			</g>
		</g>
		<g>
			<g>
				<path style="fill:#FAFAFA;" d="M115.882,270.514c0,0.144-5.379,0.26-12.012,0.26c-6.636,0-12.013-0.117-12.013-0.26
					c0-0.144,5.377-0.26,12.013-0.26C110.503,270.254,115.882,270.371,115.882,270.514z"/>
			</g>
		</g>
		<g>
			<g>
				<path style="fill:#FAFAFA;" d="M115.459,273.99c0,0.144-5.176,0.26-11.559,0.26c-6.386,0-11.56-0.117-11.56-0.26
					s5.175-0.26,11.56-0.26C110.283,273.729,115.459,273.846,115.459,273.99z"/>
			</g>
		</g>
		<g>
			<g>
				<path style="fill:#FAFAFA;" d="M115.072,277.166c0,0.144-4.939,0.26-11.03,0.26c-6.093,0-11.031-0.117-11.031-0.26
					c0-0.144,4.938-0.26,11.031-0.26C110.133,276.905,115.072,277.022,115.072,277.166z"/>
			</g>
		</g>
		<g>
			<g>
				<path style="fill:#FAFAFA;" d="M114.454,280.342c0,0.144-4.754,0.26-10.616,0.26c-5.865,0-10.617-0.116-10.617-0.26
					c0-0.144,4.753-0.26,10.617-0.26C109.7,280.082,114.454,280.198,114.454,280.342z"/>
			</g>
		</g>
		<g>
			<g>
				<path style="fill:#FAFAFA;" d="M114.298,283.518c0,0.144-4.62,0.26-10.318,0.26c-5.7,0-10.319-0.117-10.319-0.26
					s4.619-0.26,10.319-0.26C109.678,283.258,114.298,283.374,114.298,283.518z"/>
			</g>
		</g>
		<g>
			<g>
				<path style="fill:#FAFAFA;" d="M113.911,286.694c0,0.144-4.435,0.26-9.905,0.26c-5.471,0-9.906-0.117-9.906-0.26
					s4.434-0.26,9.906-0.26C109.476,286.434,113.911,286.551,113.911,286.694z"/>
			</g>
		</g>
	</g>
</g>
<g id="Calendar">
	<g>
		<g>
			<g>
				<g>
					<g>
						<g>
							<rect x="335.357" y="107.735" style="fill:#FAFAFA;" width="106.313" height="95.114"/>
						</g>
					</g>
				</g>
				<g>
					<g>
						<g>
							<g>
								<path style="fill:#263238;" d="M441.671,202.849c0,0-0.019-0.61-0.028-1.767c-0.007-1.169-0.016-2.875-0.029-5.097
									c-0.015-4.467-0.037-10.995-0.065-19.309c-0.031-16.619-0.076-40.364-0.129-68.942l0.251,0.251
									c-30.618,0.013-67.157,0.028-106.304,0.045h-0.01l0.296-0.296c-0.013,34.604-0.025,67.165-0.035,95.114l-0.261-0.261
									c31.713,0.054,58.257,0.1,76.89,0.132c9.322,0.029,16.662,0.053,21.689,0.069c2.503,0.013,4.426,0.023,5.742,0.031
									c0.643,0.007,1.134,0.011,1.481,0.015C441.493,202.839,441.671,202.849,441.671,202.849s-0.157,0.01-0.482,0.015
									c-0.34,0.004-0.822,0.008-1.453,0.015c-1.304,0.007-3.211,0.017-5.691,0.031c-5.013,0.016-12.333,0.039-21.63,0.069
									c-18.674,0.032-45.275,0.077-77.058,0.132l-0.261,0l0-0.261c-0.01-27.948-0.023-60.51-0.035-95.114l0-0.297h0.296h0.01
									c39.147,0.017,75.686,0.032,106.304,0.045l0.252,0l0,0.251c-0.054,28.644-0.098,52.444-0.129,69.101
									c-0.028,8.289-0.05,14.798-0.065,19.252c-0.013,2.201-0.022,3.892-0.029,5.049
									C441.689,202.275,441.671,202.849,441.671,202.849z"/>
							</g>
						</g>
					</g>
				</g>
			</g>
			<g>
				<g>
					<g>
						<g>
							<path style="fill:#263238;" d="M441.671,202.849c0,0-0.018-0.61-0.027-1.765c-0.006-1.167-0.016-2.874-0.028-5.096
								c-0.014-4.466-0.036-10.993-0.063-19.307c-0.03-16.619-0.073-40.365-0.124-68.945l0.241,0.241
								c-30.617,0.012-67.157,0.027-106.303,0.043h-0.01l0.284-0.284c-0.012,34.604-0.024,67.166-0.034,95.114l-0.25-0.25
								c31.716,0.052,58.26,0.096,76.893,0.126c9.322,0.029,16.662,0.051,21.688,0.066c2.503,0.013,4.427,0.023,5.741,0.029
								c0.644,0.006,1.135,0.011,1.481,0.014C441.494,202.839,441.671,202.849,441.671,202.849s-0.158,0.009-0.482,0.014
								c-0.339,0.003-0.822,0.008-1.453,0.014c-1.303,0.007-3.21,0.017-5.693,0.029c-5.012,0.015-12.333,0.038-21.631,0.066
								c-18.672,0.031-45.272,0.074-77.054,0.126l-0.25,0l0-0.251c-0.01-27.948-0.022-60.51-0.034-95.114l0-0.284h0.284h0.01
								c39.147,0.016,75.686,0.031,106.303,0.043l0.242,0l0,0.241c-0.052,28.643-0.094,52.442-0.124,69.098
								c-0.027,8.291-0.048,14.8-0.063,19.253c-0.012,2.203-0.021,3.894-0.028,5.05
								C441.688,202.275,441.671,202.849,441.671,202.849z"/>
						</g>
					</g>
				</g>
			</g>
		</g>
		<g>
			<g>
				<g>
					<g>
						<path style="fill:#263238;" d="M376.121,124.634c0,0.157-5.596,0.284-12.497,0.284c-6.904,0-12.498-0.127-12.498-0.284
							c0-0.157,5.595-0.284,12.498-0.284C370.526,124.35,376.121,124.478,376.121,124.634z"/>
					</g>
				</g>
			</g>
		</g>
		<g>
			<g>
				<g>
					<g>
						<path style="fill:#263238;" d="M421.168,131.776c0,0.157-15.373,0.284-34.333,0.284c-18.966,0-34.336-0.127-34.336-0.284
							c0-0.157,15.37-0.284,34.336-0.284C405.795,131.492,421.168,131.619,421.168,131.776z"/>
					</g>
				</g>
			</g>
		</g>
		<g>
			<g>
				<g>
					<rect x="351.309" y="143.873" style="fill:#263238;" width="4.479" height="4.479"/>
				</g>
			</g>
		</g>
		<g>
			<g>
				<g>
					<rect x="362.334" y="143.873" style="fill:#263238;" width="4.479" height="4.479"/>
				</g>
			</g>
		</g>
		<g>
			<g>
				<g>
					<rect x="373.563" y="143.67" style="fill:#E8505B;" width="4.479" height="4.479"/>
				</g>
			</g>
		</g>
		<g>
			<g>
				<g>
					<rect x="384.385" y="143.873" style="fill:#263238;" width="4.479" height="4.479"/>
				</g>
			</g>
		</g>
		<g>
			<g>
				<g>
					<rect x="395.41" y="143.873" style="fill:#263238;" width="4.479" height="4.479"/>
				</g>
			</g>
		</g>
		<g>
			<g>
				<g>
					<rect x="406.435" y="143.873" style="fill:#263238;" width="4.479" height="4.479"/>
				</g>
			</g>
		</g>
		<g>
			<g>
				<g>
					<rect x="417.46" y="143.873" style="fill:#263238;" width="4.479" height="4.479"/>
				</g>
			</g>
		</g>
		<g>
			<g>
				<g>
					<rect x="351.309" y="153.395" style="fill:#263238;" width="4.479" height="4.479"/>
				</g>
			</g>
		</g>
		<g>
			<g>
				<g>
					<rect x="362.334" y="153.395" style="fill:#263238;" width="4.479" height="4.479"/>
				</g>
			</g>
		</g>
		<g>
			<g>
				<g>
					<rect x="373.359" y="153.395" style="fill:#263238;" width="4.479" height="4.479"/>
				</g>
			</g>
		</g>
		<g>
			<g>
				<g>
					<rect x="384.385" y="153.395" style="fill:#263238;" width="4.479" height="4.479"/>
				</g>
			</g>
		</g>
		<g>
			<g>
				<g>
					<rect x="395.41" y="153.395" style="fill:#263238;" width="4.479" height="4.479"/>
				</g>
			</g>
		</g>
		<g>
			<g>
				<g>
					<rect x="406.638" y="153.192" style="fill:#E8505B;" width="4.479" height="4.479"/>
				</g>
			</g>
		</g>
		<g>
			<g>
				<g>
					<rect x="417.46" y="153.395" style="fill:#263238;" width="4.479" height="4.479"/>
				</g>
			</g>
		</g>
		<g>
			<g>
				<g>
					<rect x="351.309" y="162.917" style="fill:#263238;" width="4.479" height="4.479"/>
				</g>
			</g>
		</g>
		<g>
			<g>
				<g>
					<rect x="362.538" y="162.714" style="fill:#E8505B;" width="4.479" height="4.479"/>
				</g>
			</g>
		</g>
		<g>
			<g>
				<g>
					<rect x="373.359" y="162.917" style="fill:#263238;" width="4.479" height="4.479"/>
				</g>
			</g>
		</g>
		<g>
			<g>
				<g>
					<rect x="384.385" y="162.917" style="fill:#263238;" width="4.479" height="4.479"/>
				</g>
			</g>
		</g>
		<g>
			<g>
				<g>
					<rect x="395.41" y="162.917" style="fill:#263238;" width="4.479" height="4.479"/>
				</g>
			</g>
		</g>
		<g>
			<g>
				<g>
					<rect x="406.435" y="162.917" style="fill:#263238;" width="4.479" height="4.479"/>
				</g>
			</g>
		</g>
		<g>
			<g>
				<g>
					<rect x="417.46" y="162.917" style="fill:#263238;" width="4.479" height="4.479"/>
				</g>
			</g>
		</g>
		<g>
			<g>
				<g>
					<rect x="351.309" y="172.439" style="fill:#263238;" width="4.479" height="4.479"/>
				</g>
			</g>
		</g>
		<g>
			<g>
				<g>
					<rect x="362.334" y="172.439" style="fill:#263238;" width="4.479" height="4.479"/>
				</g>
			</g>
		</g>
		<g>
			<g>
				<g>
					<rect x="373.359" y="172.439" style="fill:#263238;" width="4.479" height="4.479"/>
				</g>
			</g>
		</g>
		<g>
			<g>
				<g>
					<rect x="384.588" y="172.236" style="fill:#E8505B;" width="4.479" height="4.479"/>
				</g>
			</g>
		</g>
		<g>
			<g>
				<g>
					<rect x="395.41" y="172.439" style="fill:#263238;" width="4.479" height="4.479"/>
				</g>
			</g>
		</g>
		<g>
			<g>
				<g>
					<rect x="406.435" y="172.439" style="fill:#263238;" width="4.479" height="4.479"/>
				</g>
			</g>
		</g>
		<g>
			<g>
				<g>
					<rect x="417.46" y="172.439" style="fill:#263238;" width="4.479" height="4.479"/>
				</g>
			</g>
		</g>
		<g>
			<g>
				<g>
					<rect x="351.309" y="181.961" style="fill:#263238;" width="4.479" height="4.479"/>
				</g>
			</g>
		</g>
		<g>
			<g>
				<g>
					<rect x="362.334" y="181.961" style="fill:#263238;" width="4.479" height="4.479"/>
				</g>
			</g>
		</g>
		<g>
			<g>
				<g>
					<rect x="373.359" y="181.961" style="fill:#263238;" width="4.479" height="4.479"/>
				</g>
			</g>
		</g>
		<g>
			<g>
				<g>
					<rect x="384.385" y="181.961" style="fill:#263238;" width="4.479" height="4.479"/>
				</g>
			</g>
		</g>
		<g>
			<g>
				<g>
					<rect x="395.41" y="181.961" style="fill:#263238;" width="4.479" height="4.479"/>
				</g>
			</g>
		</g>
		<g>
			<g>
				<g>
					<rect x="406.638" y="181.758" style="fill:#E8505B;" width="4.479" height="4.479"/>
				</g>
			</g>
		</g>
		<g>
			<g>
				<g>
					<rect x="417.46" y="181.961" style="fill:#263238;" width="4.479" height="4.479"/>
				</g>
			</g>
		</g>
	</g>
</g>
<g id="Character">
	<g>
		<g>
			<path style="fill:#B78876;" d="M210.127,296.992c0.549,7.132,11.577,79.957,11.577,79.957l-3.674,28.073l4.316,64.378
				l21.668-2.214l8.083-89.919l7.509-86.379L210.127,296.992z"/>
		</g>
		<g>
			<g>
				<g>
					<g>
						<g>
							<g>
								<g>
									<g>
										<path style="fill:#263238;" d="M245.056,462.471L245.056,462.471c0,0,24.739,9.282,25.001,13.858l-47.889-0.188
											l-0.015-12.523l1.758,0.41C230.954,465.67,238.329,465.127,245.056,462.471z"/>
									</g>
								</g>
							</g>
						</g>
					</g>
				</g>
			</g>
			<g>
				<g>
					<path style="fill:#455A64;" d="M269.201,475.005c0,0.144-10.518,0.26-23.489,0.26c-12.976,0-23.491-0.117-23.491-0.26
						s10.515-0.26,23.491-0.26C258.683,474.744,269.201,474.861,269.201,475.005z"/>
				</g>
			</g>
		</g>
		<g>
			<path style="fill:#B78876;" d="M196.077,295.536c0.549,7.132,8.278,28.121,8.278,28.121l3.393,90.149l0.549,54.138l21.668-2.214
				l4.903-73.614l3.18-101.227L196.077,295.536z"/>
		</g>
		<g>
			<g>
				<path style="fill:#AA6550;" d="M238.242,329.497c0.009,0.001,0.01,0.119,0.003,0.349c-0.011,0.257-0.026,0.594-0.044,1.021
					c-0.052,0.929-0.126,2.244-0.221,3.922c-0.217,3.437-0.527,8.356-0.91,14.42c-0.751,12.177-2.053,28.981-2.937,47.575
					c-1.029,18.578-1.96,35.394-2.636,47.603c-0.361,6.065-0.654,10.984-0.858,14.422c-0.111,1.677-0.198,2.991-0.26,3.92
					c-0.034,0.426-0.06,0.762-0.081,1.019c-0.021,0.229-0.036,0.347-0.045,0.346c-0.009,0-0.011-0.119-0.008-0.349
					c0.007-0.257,0.017-0.595,0.029-1.021c0.038-0.93,0.093-2.246,0.162-3.925c0.165-3.44,0.402-8.362,0.693-14.432
					c0.637-12.211,1.514-29.031,2.484-47.613c0.884-18.595,2.245-35.397,3.09-47.568c0.452-6.06,0.819-10.974,1.075-14.409
					c0.136-1.675,0.243-2.988,0.319-3.916c0.04-0.425,0.072-0.761,0.096-1.018C238.216,329.614,238.233,329.497,238.242,329.497z"/>
			</g>
		</g>
		<g>
			<path style="fill:#E8505B;" d="M253.642,144.185l9.243,17.905l13.443,26.041l12.669-5.838l1.504-3.556
				c5.176,11.833,20.309,18.909,9.01,25.167l-38.95,18.224l-15.411-27.574L253.642,144.185z"/>
		</g>
		<g>
			<path style="fill:#263238;" d="M199.01,81.282c-1.476,2.205-1.806,5.135-0.857,7.613c0.531,1.387,1.437,2.93,0.723,4.233
				c-0.726,1.326-2.561,1.368-3.991,1.86c-2.487,0.857-4.098,3.714-3.545,6.286c0.199,0.923,0.64,1.844,0.448,2.768
				c-0.2,0.962-1.024,1.641-1.656,2.393c-1.571,1.867-2.057,4.587-1.23,6.883c0.827,2.296,2.936,4.081,5.337,4.517
				c1.092,0.199,2.277,0.153,3.223,0.735c1.084,0.667,1.559,1.972,2.324,2.99c1.467,1.951,4.228,2.816,6.546,2.05
				c2.318-0.766,4.02-3.106,4.036-5.547"/>
		</g>
		<g>
			<g>
				<g>
					<path style="fill:#263238;" d="M217.33,73.284c-2.584-1.64-3.208-5.446-1.808-8.167c1.4-2.722,4.372-4.375,7.394-4.862
						c4.374-0.706,9.05,0.844,12.137,4.022c1.668,1.717,3.019,3.958,5.28,4.745c1.988,0.692,4.187,0.067,6.274,0.338
						c2.798,0.363,5.195,2.351,6.63,4.781c1.435,2.429,2.026,5.262,2.358,8.063c0.304,2.571,0.505,5.393,2.289,7.27
						c1.74,1.83,4.488,2.217,6.651,3.519c4.07,2.449,5.389,8.516,2.704,12.434c-0.856,1.249-2.085,2.395-2.185,3.906
						c-0.091,1.38,0.801,2.608,1.219,3.927c1.075,3.394-1.703,7.426-5.257,7.63c-1.794,0.103-3.717-0.596-5.325,0.206
						c-1.598,0.797-2.192,2.724-3.214,4.188c-2.01,2.88-6.215,3.966-9.368,2.42c-1.32-0.647-2.566-1.716-4.033-1.617
						c-1.464,0.099-2.616,1.348-4.056,1.627c-1.885,0.365-3.676-1.024-4.797-2.583c-1.121-1.559-1.902-3.396-3.337-4.672
						c-1.879-1.671-4.518-2.084-6.896-2.903c-5.247-1.807-9.633-5.972-11.708-11.119c-2.075-5.148-1.804-11.189,0.723-16.13"/>
				</g>
				<g>
					<g>
						<g>
							<g>
								<g>
									<g>
										<g>
											<g>
												<g>
													<g>
														<g>
															<g>
																<g>
																	<g>
																		<path style="fill:#B78876;" d="M211.858,77.39c-2.224,0.24-3.894,2.142-3.845,4.379l0,0l2.571,58.186
																			c0.107,6.872,10.153,10.733,17.51,10.562l0,0c7.43-0.173,7.67-3.817,7.762-10.355
																			c0.155-10.923,0.142-15.023,0.146-14.961c0,0,9.385-1.58,11.303-13.833c0.954-6.094,0.626-16.082,0.093-24.245
																			c-0.48-7.348-5.368-16.354-12.689-15.563L211.858,77.39z"/>
																	</g>
																</g>
															</g>
														</g>
													</g>
												</g>
											</g>
											<g>
												<g>
													<g>
														<g>
															<g>
																<g>
																	<g>
																		<g>
																			<path style="fill:#263238;" d="M243.731,94.124c0.031,0.83-0.646,1.54-1.512,1.588
																				c-0.864,0.048-1.591-0.583-1.622-1.413c-0.031-0.829,0.646-1.541,1.51-1.589
																				C242.972,92.662,243.7,93.295,243.731,94.124z"/>
																		</g>
																	</g>
																</g>
															</g>
														</g>
													</g>
												</g>
												<g>
													<g>
														<g>
															<g>
																<g>
																	<g>
																		<g>
																			<g>
																				<path style="fill:#263238;" d="M245.244,92.324c-0.194,0.205-1.386-0.673-3.077-0.665
																					c-1.689-0.016-2.927,0.856-3.111,0.65c-0.09-0.091,0.107-0.462,0.647-0.856c0.531-0.393,1.437-0.776,2.49-0.774
																					c1.053,0.003,1.94,0.389,2.45,0.785C245.163,91.862,245.339,92.232,245.244,92.324z"/>
																			</g>
																		</g>
																	</g>
																</g>
															</g>
														</g>
													</g>
												</g>
											</g>
											<g>
												<g>
													<g>
														<g>
															<g>
																<g>
																	<g>
																		<g>
																			<path style="fill:#263238;" d="M227.096,94.124c0.031,0.83-0.646,1.54-1.511,1.588
																				c-0.864,0.048-1.591-0.583-1.623-1.413c-0.031-0.829,0.646-1.541,1.51-1.589
																				C226.338,92.662,227.065,93.295,227.096,94.124z"/>
																		</g>
																	</g>
																</g>
															</g>
														</g>
													</g>
												</g>
												<g>
													<g>
														<g>
															<g>
																<g>
																	<g>
																		<g>
																			<g>
																				<path style="fill:#263238;" d="M228.628,92.676c-0.195,0.205-1.388-0.673-3.077-0.664
																					c-1.689-0.016-2.928,0.856-3.111,0.65c-0.09-0.092,0.105-0.462,0.647-0.856c0.531-0.393,1.437-0.776,2.49-0.774
																					c1.053,0.004,1.939,0.389,2.45,0.785C228.545,92.214,228.723,92.585,228.628,92.676z"/>
																			</g>
																		</g>
																	</g>
																</g>
															</g>
														</g>
													</g>
												</g>
											</g>
											<g>
												<g>
													<g>
														<g>
															<g>
																<g>
																	<g>
																		<g>
																			<path style="fill:#263238;" d="M234.79,105.2c-0.008-0.096,1.042-0.28,2.745-0.502
																				c0.432-0.045,0.84-0.132,0.912-0.427c0.101-0.312-0.081-0.777-0.291-1.279c-0.408-1.044-0.835-2.138-1.284-3.284
																				c-1.783-4.676-3.075-8.522-2.886-8.592c0.189-0.07,1.788,3.663,3.571,8.339c0.429,1.153,0.84,2.252,1.23,3.304
																				c0.165,0.49,0.447,1.046,0.228,1.694c-0.115,0.323-0.432,0.558-0.708,0.633c-0.276,0.085-0.519,0.09-0.733,0.103
																				C235.86,105.286,234.797,105.296,234.79,105.2z"/>
																		</g>
																	</g>
																</g>
															</g>
														</g>
													</g>
												</g>
											</g>
											<g>
												<g>
													<g>
														<g>
															<g>
																<g>
																	<g>
																		<path style="fill:#AA6550;" d="M236.002,125.202c0,0-8.24,0.55-16.415-4.34c0,0,4.157,8.637,16.415,7.463V125.202
																			z"/>
																	</g>
																</g>
															</g>
														</g>
													</g>
												</g>
											</g>
											<g>
												<g>
													<g>
														<g>
															<g>
																<g>
																	<g>
																		<path style="fill:#AA6550;" d="M234.084,109.275c-0.61-0.802-1.676-1.242-2.733-1.125
																			c-0.733,0.08-1.474,0.436-1.918,1.034c-0.444,0.598-0.536,1.447-0.13,2.015c0.458,0.641,1.411,0.787,2.217,0.556
																			c0.807-0.231,1.499-0.764,2.158-1.294c0.182-0.147,0.368-0.3,0.482-0.501c0.113-0.201,0.137-0.463-0.004-0.629"/>
																	</g>
																</g>
															</g>
														</g>
													</g>
												</g>
											</g>
											<g>
												<g>
													<g>
														<g>
															<g>
																<g>
																	<g>
																		<g>
																			<path style="fill:#263238;" d="M229.818,106.38c0.275-0.016,0.283,1.818,1.856,3.117
																				c1.57,1.303,3.526,1.093,3.541,1.349c0.026,0.115-0.435,0.357-1.26,0.382c-0.81,0.03-1.993-0.228-2.956-1.023
																				c-0.96-0.797-1.374-1.861-1.438-2.614C229.489,106.825,229.692,106.37,229.818,106.38z"/>
																		</g>
																	</g>
																</g>
															</g>
														</g>
													</g>
												</g>
											</g>
										</g>
									</g>
								</g>
								<g>
									<g>
										<g>
											<g>
												<g>
													<g>
														<g>
															<path style="fill:#263238;" d="M229.382,89.715c-0.166,0.46-1.854,0.246-3.837,0.489
																c-1.988,0.204-3.586,0.788-3.85,0.376c-0.118-0.197,0.16-0.63,0.806-1.076c0.64-0.446,1.662-0.87,2.852-1.006
																c1.19-0.133,2.281,0.054,3.004,0.346C229.085,89.136,229.453,89.497,229.382,89.715z"/>
														</g>
													</g>
												</g>
											</g>
										</g>
									</g>
								</g>
								<g>
									<g>
										<g>
											<g>
												<g>
													<g>
														<g>
															<path style="fill:#263238;" d="M244.611,89.243c-0.297,0.384-1.462-0.011-2.862-0.027
																c-1.4-0.065-2.586,0.264-2.86-0.137c-0.12-0.195,0.066-0.58,0.583-0.944c0.51-0.363,1.363-0.661,2.326-0.634
																c0.962,0.028,1.797,0.375,2.285,0.767C244.579,88.661,244.742,89.056,244.611,89.243z"/>
														</g>
													</g>
												</g>
											</g>
										</g>
									</g>
								</g>
							</g>
						</g>
					</g>
				</g>
				<g>
					<path style="fill:#263238;" d="M218.582,70.645c-0.009,2.452,1.121,4.885,3.002,6.458s4.474,2.258,6.886,1.817
						c1.872-0.342,3.922-1.288,5.542-0.291c1.704,1.049,1.774,3.617,3.285,4.929c2.16,1.874,5.593,0.116,8.335,0.929
						c2.117,0.628,3.439,2.651,4.846,4.354c1.406,1.702,3.513,3.321,5.63,2.693c-0.135-1.903-0.274-3.826-0.84-5.648
						c-0.567-1.822-1.609-3.561-3.208-4.602c-0.876-0.571-1.894-0.919-2.708-1.575c-1.757-1.419-2.164-3.888-3.249-5.869
						c-1.399-2.553-4.101-4.346-6.997-4.642c-2.41-0.246-4.893,0.477-7.242-0.116c-1.736-0.438-3.253-1.565-5.012-1.899
						c-3.426-0.651-6.61,1.807-9.094,4.255"/>
				</g>
			</g>
		</g>
		<g>
			<polygon style="fill:#263238;" points="208.732,124.903 236.268,128.435 236.002,137.953 264.434,173.547 256.321,222.127 
				233.506,213.77 206.201,167.111 206.895,131.113 			"/>
		</g>
		<g>
			<path style="fill:#E8505B;" d="M188.634,271.373l13.411,96.501c0,0,27.555,7.75,52.919-3.451l10.448-93.301l-27.748-19.177
				L188.634,271.373z"/>
		</g>
		<g>
			<path style="fill:#E8505B;" d="M206.451,129.853l-4.71,7.783c0,0-13.107,5.53-15.975,12.288
				c-2.867,6.759,20.685,72.91,20.685,72.91s-18.023,21.709-17.818,48.538c0,0,35.841,11.469,69.633,3.891l-5.53-76.187
				c0,0-0.819-17.613-6.144-24.372C241.268,167.947,206.451,129.853,206.451,129.853z"/>
		</g>
		<g>
			<path style="fill:#E8505B;" d="M236.15,132.654l-0.148,5.299c0,0,19.074,30.722,20.318,37.017
				c3.049,15.43-2.232,40.929-2.232,40.929l2.232,59.494l10.915-3.782l-6.676-59.3l2.476-13.529c0,0,5.042-22.206,2.462-27.365
				c-1.914-3.828-7.263-19.13-11.857-27.232c-1.656-2.92-4.642-4.827-7.987-5.108l-4.236-0.356L236.15,132.654z"/>
		</g>
		<g>
			<g>
				<path style="fill:#263238;" d="M252.528,194.554c-0.018,0.004-0.102-0.269-0.245-0.79c-0.133-0.524-0.348-1.291-0.66-2.269
					c-0.628-1.948-1.622-4.761-3.391-7.971c-1.732-3.22-4.253-6.832-7.689-10.236c-3.402-3.447-7.969-6.285-12.357-9.805
					l-0.065-0.052l-0.023-0.079l-0.01-0.033c-0.733-2.525-1.449-4.994-2.138-7.37l0.29,0.18c-1.869,0.332-3.681,0.653-5.423,0.963
					l-0.131,0.023l-0.091-0.095c-2.762-2.9-5.341-5.589-7.56-8.073c-2.2-2.481-4.144-4.673-5.771-6.507
					c-1.595-1.785-2.874-3.217-3.791-4.243c-0.418-0.467-0.753-0.841-1.012-1.13c-0.227-0.259-0.34-0.399-0.33-0.409
					c0.01-0.01,0.144,0.11,0.391,0.351c0.274,0.275,0.628,0.632,1.07,1.076c0.926,0.949,2.254,2.355,3.899,4.15
					c1.65,1.812,3.622,3.979,5.853,6.431c2.239,2.459,4.83,5.124,7.607,8.014l-0.221-0.072c1.741-0.315,3.552-0.643,5.42-0.981
					l0.226-0.041l0.065,0.221c0.692,2.375,1.412,4.843,2.147,7.367l0.01,0.033l-0.087-0.131c4.355,3.496,8.934,6.357,12.37,9.872
					c3.456,3.462,5.971,7.133,7.675,10.403c1.742,3.259,2.689,6.112,3.261,8.087c0.283,0.991,0.467,1.769,0.568,2.302
					C252.496,194.27,252.545,194.55,252.528,194.554z"/>
			</g>
		</g>
		<g>
			<g>
				<path style="fill:#263238;" d="M256.964,194.554c-0.018-0.004,0.01-0.233,0.079-0.665c0.083-0.485,0.191-1.112,0.324-1.889
					c0.296-1.701,0.705-4.057,1.206-6.942c0.481-2.934,1.051-6.431,1.455-10.334c0.102-0.975,0.184-1.977,0.234-2.999
					c0.049-1.031,0.087-2.053-0.071-3.104c-0.266-2.106-0.697-4.282-1.156-6.5c-0.56-2.663-1.15-5.244-1.741-7.693l0.175,0.182
					c-2.028-0.594-3.973-1.163-5.815-1.703l-0.223-0.065l0.06-0.222c0.319-1.176,0.625-2.306,0.918-3.39l0.068,0.223
					c-3.554-3.003-6.195-5.822-8.114-7.715c-0.913-0.928-1.645-1.674-2.192-2.23c-0.5-0.519-0.758-0.804-0.742-0.82
					c0.016-0.016,0.306,0.236,0.836,0.724c0.567,0.534,1.328,1.25,2.275,2.141c1.969,1.837,4.654,4.61,8.227,7.568l0.104,0.086
					l-0.036,0.137c-0.284,1.086-0.58,2.218-0.889,3.397l-0.162-0.287c1.846,0.529,3.794,1.088,5.825,1.67l0.14,0.04l0.035,0.142
					c0.603,2.455,1.198,5.036,1.76,7.708c0.461,2.227,0.889,4.405,1.153,6.548c0.157,1.074,0.116,2.165,0.061,3.188
					c-0.056,1.035-0.145,2.043-0.254,3.023c-0.432,3.922-1.041,7.418-1.569,10.348c-0.534,2.93-1.021,5.289-1.37,6.917
					c-0.173,0.77-0.312,1.391-0.42,1.871C257.044,194.335,256.982,194.557,256.964,194.554z"/>
			</g>
		</g>
		<g>
			<g>
				<path style="fill:#263238;" d="M256.321,275.393c-0.144,0.006-0.944-16.167-1.787-36.12c-0.843-19.959-1.41-36.139-1.267-36.145
					c0.144-0.006,0.944,16.164,1.787,36.123C255.897,259.204,256.464,275.387,256.321,275.393z"/>
			</g>
		</g>
		<g>
			<g>
				<path style="fill:#263238;" d="M267.236,271.611c0.007,0.017-0.252,0.129-0.752,0.326c-0.546,0.21-1.277,0.49-2.194,0.842
					c-0.953,0.368-2.123,0.806-3.515,1.214c-1.389,0.415-2.949,0.972-4.73,1.382c-0.887,0.224-1.814,0.459-2.78,0.703
					c-0.965,0.251-1.992,0.412-3.043,0.634c-2.1,0.463-4.376,0.767-6.768,1.113c-4.796,0.579-10.109,0.911-15.686,0.805
					c-5.579-0.137-10.87-0.702-15.645-1.421c-2.382-0.398-4.647-0.773-6.742-1.249c-2.108-0.413-4.045-0.913-5.815-1.359
					c-1.778-0.417-3.351-0.924-4.746-1.317c-1.397-0.39-2.582-0.782-3.548-1.111c-0.93-0.316-1.67-0.569-2.224-0.757
					c-0.507-0.178-0.77-0.28-0.764-0.297c0.006-0.017,0.28,0.052,0.797,0.198c0.561,0.165,1.31,0.386,2.252,0.663
					c0.974,0.298,2.167,0.662,3.568,1.024c1.4,0.365,2.977,0.846,4.756,1.24c1.771,0.422,3.708,0.9,5.813,1.293
					c2.092,0.456,4.352,0.813,6.727,1.197c4.761,0.69,10.031,1.238,15.584,1.375c5.551,0.105,10.838-0.211,15.616-0.761
					c2.382-0.332,4.65-0.618,6.745-1.061c1.048-0.211,2.073-0.362,3.036-0.602c0.964-0.232,1.891-0.455,2.777-0.668
					c1.78-0.385,3.342-0.916,4.735-1.304c1.397-0.38,2.573-0.789,3.534-1.128c0.93-0.313,1.671-0.562,2.225-0.749
					C266.958,271.673,267.229,271.594,267.236,271.611z"/>
			</g>
		</g>
		<g>
			<g>
				<path style="fill:#E8505B;" d="M185.766,149.924c0,0-7.203,12.336,2.052,28.827c9.255,16.492,36.045,53.905,36.045,53.905
					s5.358,2.273,10.716,2.598c4.504,0.273,26.295-11.749,33.308-15.672l1.409-4.441l-4.246-7.738l-4.49-8.183l-24.973,7.275
					l-26.661-52.91C208.926,153.585,200.925,142.204,185.766,149.924z"/>
			</g>
			<g>
				<g>
					<path style="fill:#263238;" d="M196.077,192.169c0,0,0.11,0.13,0.304,0.398c0.204,0.288,0.487,0.686,0.851,1.199
						c0.752,1.079,1.838,2.639,3.231,4.638c2.8,4.06,6.831,9.903,11.808,17.119c2.488,3.621,5.213,7.586,8.137,11.842
						c0.366,0.532,0.734,1.069,1.106,1.61c0.405,0.507,0.786,1.042,1.22,1.537c0.889,0.968,1.856,1.908,3,2.636
						c2.254,1.501,5.07,2.25,7.93,2.058c0.704-0.054,1.451-0.113,2.153-0.254c0.27-0.08,0.636-0.251,0.966-0.391
						c0.337-0.142,0.674-0.295,1.011-0.453c1.35-0.617,2.707-1.268,4.077-1.927c2.733-1.336,5.524-2.701,8.365-4.09
						c5.663-2.823,11.526-5.747,17.534-8.742l-0.131,0.154c0.069-0.219,0.145-0.456,0.22-0.694c0.399-1.256,0.795-2.506,1.189-3.747
						l0.02,0.204c-2.997-5.467-5.919-10.795-8.73-15.923l0.293,0.121c-8.94,2.594-17.341,5.032-24.981,7.248l-0.181,0.053
						l-0.084-0.168c-6.686-13.307-12.268-24.417-16.19-32.222c-1.934-3.884-3.458-6.945-4.51-9.057
						c-0.506-1.033-0.897-1.833-1.173-2.395c-0.123-0.26-0.219-0.462-0.293-0.618c-0.064-0.139-0.094-0.212-0.088-0.215
						c0.005-0.003,0.046,0.064,0.12,0.198c0.082,0.152,0.188,0.349,0.324,0.602c0.29,0.555,0.702,1.345,1.234,2.364
						c1.077,2.099,2.64,5.14,4.622,9c3.962,7.785,9.602,18.866,16.357,32.138l-0.265-0.115c7.635-2.233,16.031-4.688,24.966-7.301
						l0.195-0.057l0.098,0.179c2.815,5.126,5.741,10.452,8.742,15.917l0.054,0.098l-0.034,0.106
						c-0.394,1.241-0.79,2.491-1.189,3.747c-0.075,0.238-0.151,0.475-0.22,0.694l-0.033,0.105l-0.098,0.049
						c-6.011,2.993-11.878,5.913-17.543,8.734c-2.845,1.386-5.639,2.747-8.375,4.081c-1.373,0.658-2.732,1.307-4.09,1.924
						c-0.338,0.157-0.677,0.311-1.021,0.455c-0.354,0.143-0.649,0.305-1.089,0.424c-0.728,0.143-1.453,0.197-2.193,0.253
						c-2.949,0.193-5.882-0.593-8.209-2.155c-1.182-0.758-2.175-1.727-3.083-2.725c-0.443-0.509-0.831-1.057-1.243-1.578
						c-0.37-0.543-0.737-1.081-1.101-1.615c-2.906-4.27-5.614-8.248-8.086-11.88c-4.921-7.257-8.905-13.133-11.673-17.215
						c-1.358-2.023-2.417-3.601-3.151-4.693c-0.346-0.525-0.615-0.933-0.808-1.228C196.158,192.319,196.077,192.169,196.077,192.169
						z"/>
				</g>
			</g>
			<g>
				<g>
					<path style="fill:#263238;" d="M231.65,218.127c-0.138-0.068,1.006-2.571,2.084-5.776c1.091-3.202,1.702-5.885,1.852-5.855
						c0.132,0.021-0.255,2.78-1.359,6.022C233.136,215.763,231.768,218.191,231.65,218.127z"/>
				</g>
			</g>
		</g>
		<g>
			<g>
				<path style="fill:#263238;" d="M217.357,232.737c-0.03,0.055-0.831-0.304-2.001-1.096c-1.174-0.785-2.685-2.026-4.208-3.54
					c-1.522-1.517-2.783-2.997-3.65-4.102c-0.868-1.104-1.351-1.828-1.297-1.871c0.128-0.104,2.305,2.596,5.314,5.603
					c1.507,1.499,2.956,2.763,4.058,3.612C216.67,232.198,217.398,232.667,217.357,232.737z"/>
			</g>
		</g>
		<g>
			<path style="fill:#263238;" d="M212.134,97.187c-0.364-0.097-1.83,2.063,0.519,2.594c4.115,0.931,4.658-7.106,3.74-9.405
				c1.489-1.322,2.994-2.662,4.13-4.342c1.136-1.68,2.136-6.259,1.894-8.32c1.483,0.087,7.802-2,7.128-2.193
				c-1.535-0.439-4.678-1.434-5.502-2.766c-1.789-2.893-4.943-4.868-8.166-4.692c-3.223,0.176-6.316,2.721-6.975,6.124
				c-3.899,0.029-7.704,2.478-9.575,6.164c-1.871,3.685-1.733,8.458,0.347,12.01c0.545,0.93,1.236,1.86,1.251,2.96
				c0.019,1.363-0.989,2.443-1.701,3.571c-1.941,3.074-1.795,7.297-0.295,10.645c1.501,3.348,2.557,4.524,4.693,5.195
				c4.179,1.312-0.668,9.918,6.284,9.918"/>
		</g>
		<g>
			<g>
				<g>
					<g>
						<g>
							<g>
								<g>
									<g>
										<g>
											<g>
												<g>
													<path style="fill:#B78876;" d="M212.303,100.554c-0.13-2.606-2.969-4.346-5.228-3.04
														c-1.24,0.717-2.189,2.158-2.075,4.925c0.304,7.379,7.649,5.552,7.653,5.34
														C212.656,107.648,212.456,103.606,212.303,100.554z"/>
												</g>
											</g>
										</g>
									</g>
								</g>
							</g>
						</g>
					</g>
				</g>
			</g>
			<g>
				<g>
					<g>
						<g>
							<g>
								<g>
									<g>
										<g>
											<g>
												<g>
													<g>
														<path style="fill:#AA6550;" d="M210.285,105.077c-0.033-0.022-0.125,0.095-0.338,0.204
															c-0.208,0.106-0.569,0.188-0.96,0.059c-0.791-0.254-1.499-1.465-1.589-2.793c-0.046-0.671,0.068-1.316,0.284-1.855
															c0.203-0.549,0.536-0.941,0.926-1.026c0.387-0.106,0.674,0.117,0.773,0.321c0.107,0.202,0.067,0.352,0.106,0.363
															c0.021,0.018,0.153-0.13,0.081-0.433c-0.036-0.145-0.13-0.316-0.309-0.45c-0.183-0.137-0.446-0.199-0.719-0.159
															c-0.567,0.063-1.058,0.607-1.296,1.199c-0.269,0.596-0.413,1.322-0.361,2.075c0.109,1.485,0.927,2.845,2.006,3.109
															c0.525,0.114,0.951-0.06,1.167-0.244C210.279,105.255,210.311,105.089,210.285,105.077z"/>
													</g>
												</g>
											</g>
										</g>
									</g>
								</g>
							</g>
						</g>
					</g>
				</g>
			</g>
		</g>
		<g>
			<g>
				<path style="fill:#455A64;" d="M266.777,105.306c-0.026-0.02,0.168-0.229,0.418-0.697c0.244-0.464,0.578-1.192,0.657-2.194
					c0.095-0.984-0.047-2.266-0.783-3.472c-0.737-1.211-2.148-2.124-3.833-2.74c-1.66-0.671-3.683-1.084-5.467-2.418
					c-1.801-1.338-2.805-3.649-3.187-6.033c-0.399-2.418-0.198-4.965-0.389-7.543c-0.093-1.289-0.317-2.585-0.781-3.822
					c-0.461-1.228-1.168-2.403-2.197-3.253c-1.026-0.853-2.317-1.311-3.618-1.476c-1.306-0.169-2.626-0.08-3.899,0.12
					c-1.274,0.207-2.546,0.511-3.845,0.53c-1.283,0.047-2.656-0.344-3.556-1.261c-0.91-0.89-1.415-1.991-2.004-2.942
					c-0.565-0.972-1.278-1.781-2.151-2.35c-1.729-1.17-3.795-1.443-5.538-1.196c-1.766,0.261-3.215,1.114-4.277,2.047
					c-1.064,0.949-1.77,1.979-2.254,2.858c-0.945,1.788-1.07,2.941-1.139,2.918c-0.009-0.002-0.002-0.072,0.02-0.208
					c0.026-0.135,0.049-0.34,0.122-0.599c0.122-0.523,0.359-1.288,0.817-2.206c0.465-0.911,1.162-1.982,2.239-2.981
					c1.074-0.982,2.567-1.896,4.415-2.194c1.82-0.281,3.984-0.024,5.834,1.201c0.928,0.589,1.719,1.479,2.302,2.471
					c0.607,0.973,1.117,2.04,1.946,2.835c0.812,0.812,2,1.152,3.217,1.11c1.224-0.021,2.469-0.32,3.771-0.536
					c1.305-0.209,2.67-0.306,4.046-0.13c1.368,0.171,2.766,0.659,3.883,1.589c1.119,0.925,1.868,2.184,2.35,3.472
					c0.485,1.296,0.713,2.65,0.805,3.965c0.185,2.635-0.022,5.163,0.354,7.505c0.36,2.319,1.307,4.508,2.977,5.768
					c1.659,1.272,3.657,1.719,5.338,2.417c1.704,0.646,3.189,1.628,3.947,2.932c0.754,1.292,0.864,2.63,0.736,3.644
					c-0.115,1.033-0.49,1.769-0.768,2.225C267,105.122,266.777,105.306,266.777,105.306z"/>
			</g>
		</g>
		<g>
			<g>
				<path style="fill:#455A64;" d="M247.559,86.509c0.049,0.003-0.002,0.6,0.103,1.663c0.112,1.054,0.408,2.6,1.301,4.28
					c0.442,0.837,1.028,1.704,1.797,2.505c0.758,0.822,1.719,1.494,2.796,2.196c0.529,0.363,1.075,0.757,1.549,1.273
					c0.48,0.507,0.855,1.164,1.03,1.875c0.363,1.435,0.096,2.908,0.012,4.347c-0.112,1.434,0.041,2.877,0.925,3.874
					c0.852,1.005,2.081,1.575,3.212,2.134c1.142,0.552,2.258,1.12,3.117,1.934c0.416,0.414,0.767,0.883,0.997,1.385
					c0.209,0.507,0.361,1.018,0.39,1.518c0.166,2.022-0.776,3.526-1.555,4.264c-0.411,0.368-0.779,0.59-1.042,0.706
					c-0.267,0.109-0.408,0.157-0.414,0.141c-0.03-0.056,0.569-0.237,1.313-0.99c0.702-0.745,1.534-2.206,1.331-4.082
					c-0.093-0.925-0.513-1.889-1.317-2.627c-0.806-0.74-1.879-1.276-3.029-1.816c-1.133-0.551-2.427-1.117-3.395-2.239
					c-0.476-0.556-0.814-1.259-0.956-1.998c-0.15-0.739-0.143-1.494-0.097-2.235c0.092-1.475,0.338-2.904,0.013-4.188
					c-0.293-1.302-1.329-2.176-2.358-2.88c-1.046-0.696-2.072-1.433-2.839-2.296c-0.786-0.847-1.375-1.757-1.809-2.631
					c-0.878-1.756-1.124-3.354-1.175-4.433c-0.024-0.543-0.009-0.965,0.026-1.248C247.517,86.655,247.541,86.508,247.559,86.509z"/>
			</g>
		</g>
		<g>
			<g>
				<path style="fill:#455A64;" d="M195.146,117.412c-0.004,0.011-0.095-0.019-0.268-0.086c-0.175-0.063-0.424-0.184-0.733-0.369
					c-0.61-0.373-1.474-1.058-2.153-2.248c-0.672-1.156-1.158-2.91-0.59-4.777c0.535-1.824,2.079-3.712,4.413-4.379l-0.115,0.346
					c-0.82-1.038-1.587-2.255-1.958-3.697c-0.39-1.42-0.229-3.133,0.733-4.457c0.46-0.665,1.137-1.218,1.945-1.497
					c0.82-0.274,1.682-0.213,2.489-0.126c0.809,0.086,1.617,0.219,2.379,0.098c0.759-0.114,1.429-0.566,1.789-1.262
					c0.546-1.02,0.531-2.257,0.231-3.374c-0.286-1.136-0.775-2.225-1.041-3.389c-0.534-2.333-0.136-4.716,0.84-6.636
					c0.969-1.944,2.579-3.361,4.252-4.195c1.686-0.836,3.447-1.126,4.984-1.018l-0.184,0.156c0.178-1.427,0.96-2.536,1.784-3.251
					c0.832-0.73,1.732-1.098,2.473-1.27c0.75-0.169,1.349-0.128,1.74-0.076c0.39,0.078,0.586,0.14,0.583,0.154
					c-0.001,0.072-0.828-0.258-2.277,0.107c-0.707,0.194-1.56,0.575-2.336,1.29c-0.769,0.701-1.478,1.764-1.619,3.083l-0.018,0.165
					l-0.167-0.009c-1.479-0.079-3.166,0.225-4.772,1.044c-1.596,0.819-3.11,2.178-4.019,4.033c-0.917,1.832-1.281,4.105-0.768,6.307
					c0.252,1.1,0.741,2.183,1.047,3.377c0.316,1.179,0.361,2.565-0.276,3.75c-0.415,0.822-1.275,1.403-2.162,1.525
					c-0.886,0.135-1.723-0.015-2.52-0.098c-0.794-0.089-1.578-0.135-2.271,0.096c-0.689,0.236-1.286,0.71-1.701,1.305
					c-0.868,1.191-1.033,2.721-0.68,4.053c0.335,1.347,1.055,2.525,1.842,3.54l0.201,0.26l-0.316,0.087
					c-2.164,0.591-3.656,2.35-4.186,4.062c-0.564,1.744-0.145,3.416,0.471,4.55c0.621,1.163,1.431,1.859,2.005,2.259
					C194.801,117.243,195.16,117.38,195.146,117.412z"/>
			</g>
		</g>
		<g>
			<g>
				<path style="fill:#455A64;" d="M219.386,73.528c0.054,0.078-0.744,0.211-1.472,1.233c-0.731,1.005-1.005,2.932-0.543,5.103
					l0.04,0.186l-0.182,0.045c-1.825,0.455-3.835,1.906-4.754,4.188c-0.217,0.563-0.364,1.187-0.382,1.8
					c-0.003,0.625,0.109,1.279,0.231,1.95c0.119,0.671,0.256,1.364,0.281,2.1c0.05,0.721-0.143,1.558-0.585,2.177
					c-0.918,1.396-2.393,2.084-3.661,2.75c-1.304,0.647-2.509,1.308-3.426,2.244c-1.868,1.84-2.702,4.218-2.756,6.183
					c-0.071,1.991,0.489,3.565,0.972,4.56c0.49,1.007,0.902,1.488,0.86,1.518c-0.014,0.011-0.122-0.103-0.315-0.332
					c-0.183-0.236-0.451-0.591-0.724-1.093c-0.549-0.988-1.186-2.59-1.161-4.663c0.008-2.05,0.839-4.559,2.786-6.513
					c0.955-0.996,2.242-1.711,3.532-2.358c1.267-0.667,2.657-1.347,3.456-2.58c0.817-1.12,0.452-2.583,0.237-3.905
					c-0.118-0.674-0.235-1.352-0.227-2.048c0.027-0.705,0.191-1.356,0.431-1.969c1.016-2.449,3.166-3.94,5.113-4.385l-0.142,0.231
					c-0.437-2.275-0.091-4.27,0.744-5.317c0.404-0.521,0.847-0.802,1.155-0.941C219.213,73.566,219.38,73.51,219.386,73.528z"/>
			</g>
		</g>
		<g>
			<g>
				<path style="fill:#263238;" d="M264.699,165.605c0.033-0.013,0.233,0.434,0.567,1.259c0.16,0.415,0.383,0.913,0.58,1.513
					c0.191,0.622,0.401,1.307,0.631,2.055c0.195,0.772,0.373,1.628,0.569,2.546c0.102,0.932,0.322,1.919,0.338,2.979
					c0.164,2.108,0.014,4.451-0.448,6.843c-0.941,4.797-2.69,8.855-3.784,11.819c-0.534,1.408-0.981,2.585-1.331,3.507
					c-0.313,0.829-0.503,1.282-0.537,1.271c-0.034-0.011,0.09-0.486,0.345-1.336c0.248-0.853,0.658-2.07,1.177-3.568
					c1.009-3.001,2.695-7.072,3.619-11.789c0.454-2.354,0.615-4.647,0.481-6.72c-0.001-1.041-0.204-2.014-0.285-2.935
					c-0.176-0.908-0.331-1.757-0.5-2.526c-0.201-0.748-0.385-1.434-0.551-2.057c-0.169-0.604-0.364-1.109-0.493-1.532
					C264.801,166.092,264.665,165.619,264.699,165.605z"/>
			</g>
		</g>
		<g style="opacity:0.3;">
			<g>
				<path d="M204.945,205.185c1.256,4.758,4.53,10.829,6.834,16.173c2.304,5.345,5.336,10.33,9.358,14.538
					c4.022,4.207,9.839,7.102,15.596,6.246c4.107-0.611,7.698-3.001,11.136-5.329c3.365-2.28,6.731-4.559,10.096-6.839
					c1.202-0.814,2.431-1.655,3.264-2.844c0.833-1.189,1.196-2.82,0.523-4.107c-4.98,2.423-9.96,4.846-14.94,7.27
					c-3.511,1.708-7.076,3.435-10.915,4.143c-3.839,0.708-8.055,0.282-11.212-2.016c-1.976-1.439-3.401-3.493-4.786-5.506
					C214.914,219.67,209.929,212.428,204.945,205.185"/>
			</g>
		</g>
		<g>
			<g>
				<path style="fill:#263238;" d="M209.775,157.356c-0.079,0.047-0.682-0.966-1.881-2.42c-1.193-1.455-3.056-3.302-5.461-4.871
					c-2.412-1.56-4.857-2.511-6.672-3.01c-1.816-0.504-2.987-0.643-2.976-0.734c0.004-0.036,0.299-0.029,0.832,0.013
					c0.534,0.034,1.301,0.154,2.235,0.364c1.868,0.414,4.396,1.333,6.864,2.93c2.461,1.605,4.329,3.542,5.467,5.079
					c0.572,0.768,0.994,1.42,1.242,1.894C209.68,157.072,209.806,157.338,209.775,157.356z"/>
			</g>
		</g>
		<g style="opacity:0.3;">
			<g>
				<path d="M188.819,271.299c10.919,7.718,23.191,12.576,36.52,13.638c13.329,1.062,25.295-3.652,37.299-9.543v-2.262
					c0,0-18.332,6.315-39.13,4.721C202.48,276.241,188.819,271.299,188.819,271.299z"/>
			</g>
		</g>
		<g>
			<g>
				<path style="fill:#B78876;" d="M295.213,200.615c0,0,9.372-2.817,15.448-23.279l-11.85,14.077L295.213,200.615z"/>
			</g>
			<g>
				<path style="fill:#E0E0E0;" d="M268.975,215.427c0,0,19.975-52.53,20.485-52.616c0.509-0.085,24.582-16.089,24.582-16.089
					l2.858,0.65l-24.059,17.591l-21.3,51.765L268.975,215.427z"/>
			</g>
			<g>
				<path style="fill:#263238;" d="M270.848,218.28l21.992-53.318l24.059-17.591c0.355,0-21.99,53.976-21.99,53.976L270.848,218.28z
					"/>
			</g>
			<g>
				<g>
					<path style="fill:#B78876;" d="M268.719,195.285c0,0,3.205-7.299,4.892-8.339c1.879-1.159,5.87-4.219,7.161-7.008
						c0.864-1.865,2.294-1.245,2.294-1.245l-2.627,7.337l14.568-8.695c0,0,0.816,2.146-0.799,4.356
						c-1.615,2.211-1.079,2.007-1.079,2.007s1.751,1.053,0.872,2.616c-0.879,1.562-2.362,3.477-2.362,3.477s1.608,1.967,0.958,3.811
						c0,0,0.612,1.609,0.233,3.841c-0.379,2.232-4.413,6.474-4.413,6.474l-20.127,9.586l-7.565-14.062L268.719,195.285z"/>
				</g>
				<g>
					<g>
						<path style="fill:#AA6550;" d="M285.332,183.11c0.074,0.12-1.808,1.416-4.203,2.894c-2.396,1.479-4.398,2.581-4.472,2.461
							c-0.074-0.12,1.808-1.415,4.204-2.894C283.256,184.092,285.258,182.991,285.332,183.11z"/>
					</g>
				</g>
				<g>
					<g>
						<path style="fill:#AA6550;" d="M293.396,182.859c0.096,0.102-1.586,1.919-3.757,4.056c-2.172,2.138-4.014,3.791-4.115,3.693
							c-0.101-0.098,1.581-1.914,3.758-4.056C291.457,184.41,293.299,182.756,293.396,182.859z"/>
					</g>
				</g>
				<g>
					<g>
						<path style="fill:#AA6550;" d="M292.318,189.066c0.107,0.091-0.682,1.194-1.762,2.463c-1.081,1.269-2.044,2.223-2.151,2.132
							c-0.107-0.091,0.682-1.194,1.763-2.463C291.248,189.93,292.211,188.975,292.318,189.066z"/>
					</g>
				</g>
				<g>
					<g>
						<path style="fill:#AA6550;" d="M292.686,193.251c0.108,0.094-0.337,0.773-0.903,1.586c-0.568,0.811-1.054,1.462-1.179,1.393
							c-0.122-0.066,0.175-0.848,0.761-1.685C291.95,193.707,292.582,193.159,292.686,193.251z"/>
					</g>
				</g>
			</g>
			<g>
				<g>
					<path style="fill:#B78876;" d="M298.507,192.691c0,0,7.484-5.849,8.509-8.472c0.203-0.519,4.791-7.841,4.806-10.713v-5.306
						l-1.854-7.842c-2.556,0.304-3.014,2.104-2.853,4.38c0.07,0.99,0.84,4.579,0.84,4.579l-0.797,4.188c0,0-0.256-3.852-1.544-6.052
						c-0.574-0.98-1.9-0.377-2.434,0.135c-1.034,0.989-0.466,2.204-0.116,5.263c0.677,5.917,0.413,6.859,0.413,6.859
						s-0.067-3.695-1.623-6.391c-0.61-1.056-1.296-1.654-2.027-1.273c-0.779,0.407-1.567,1.808-0.899,4.009
						c1.266,4.173,1.56,6.797,1.447,7.987c0,0-0.867-1.004-2.084-3.515c-0.481-0.993-1.724-0.944-2.089,0
						c-0.55,1.422-0.307,1.923,0.804,5.986C297.588,188.648,298.507,192.691,298.507,192.691z"/>
				</g>
				<g>
					<g>
						<path style="fill:#AA6550;" d="M306.552,185.059c-0.06-0.045,0.315-0.617,0.833-1.577c0.255-0.479,0.545-1.063,0.751-1.728
							c0.094-0.338,0.158-0.673,0.122-1.034c-0.034-0.378-0.101-0.784-0.166-1.195c-0.573-3.301-1.086-5.987-0.935-6.019
							c0.13-0.028,0.87,2.601,1.448,5.935c0.066,0.42,0.13,0.826,0.161,1.239c0.037,0.432-0.056,0.86-0.173,1.218
							c-0.252,0.721-0.589,1.302-0.892,1.772C307.089,184.605,306.606,185.101,306.552,185.059z"/>
					</g>
				</g>
				<g>
					<g>
						<path style="fill:#AA6550;" d="M301.62,172.948c0.133-0.057,1.421,2.808,2.537,6.505c0.562,1.846,0.995,3.542,1.229,4.789
							c0.248,1.244,0.258,2.046,0.185,2.048c-0.071,0.003-0.207-0.754-0.544-1.966c-0.323-1.213-0.809-2.882-1.368-4.719
							C302.549,175.93,301.488,173.003,301.62,172.948z"/>
					</g>
				</g>
				<g>
					<g>
						<path style="fill:#AA6550;" d="M301.995,190.2c-0.083-0.01-0.026-0.592-0.188-1.496c-0.15-0.905-0.581-2.109-1.252-3.355
							c-0.673-1.248-1.361-2.363-1.759-3.228c-0.409-0.861-0.556-1.438-0.492-1.462c0.071-0.028,0.334,0.489,0.817,1.288
							c0.472,0.805,1.202,1.876,1.894,3.158c0.692,1.282,1.096,2.583,1.157,3.553C302.247,189.629,302.053,190.213,301.995,190.2z"
							/>
					</g>
				</g>
			</g>
		</g>
		<g>
			<g>
				<g>
					<g>
						<g>
							<g>
								<g>
									<g>
										<g>
											<path style="fill:#263238;" d="M230.322,463.704L230.322,463.704c0,0,24.384,9.149,24.642,13.659l-47.202-0.185
												l-0.015-12.344l1.733,0.404C216.422,466.857,223.692,466.322,230.322,463.704z"/>
										</g>
									</g>
								</g>
							</g>
						</g>
					</g>
				</g>
				<g>
					<g>
						<path style="fill:#455A64;" d="M254.12,476.058c0,0.144-10.367,0.26-23.152,0.26c-12.79,0-23.154-0.117-23.154-0.26
							c0-0.144,10.365-0.26,23.154-0.26C243.754,475.798,254.12,475.914,254.12,476.058z"/>
					</g>
				</g>
			</g>
			<g>
				<g>
					<path style="fill:#455A64;" d="M254.964,477.363c-0.096,0.059-0.728-1.454-2.567-3.244c-1.818-1.787-4.845-3.749-8.567-4.96
						c-3.742-1.286-7.03-2.674-9.409-3.684c-1.187-0.51-2.142-0.937-2.796-1.244c-0.655-0.307-1.009-0.494-0.995-0.527
						c0.014-0.033,0.395,0.091,1.073,0.34c0.779,0.297,1.733,0.661,2.857,1.09c2.41,0.921,5.722,2.255,9.435,3.531
						c3.79,1.232,6.869,3.296,8.663,5.194c0.902,0.947,1.502,1.829,1.848,2.47C254.859,476.968,254.988,477.353,254.964,477.363z"/>
				</g>
			</g>
		</g>
	</g>
</g>
</svg>
